<svg xmlns="http://www.w3.org/2000/svg" width="18" height="16" viewBox="0 0 18 16">
    <path data-name="사각형 27428" style="fill:none" d="M0 0h18v16H0z"/>
    <path data-name="합치기 544" d="M9049.972 11325.5a.5.5 0 0 1-.5-.5v-1.5h-3v1.5a.5.5 0 0 1-.5.5h-2.5a.5.5 0 0 1-.5-.5v-1.5a1 1 0 0 1-1-1v-8.541a2.961 2.961 0 0 0-.969.425v1.206a.75.75 0 0 1-1.5 0v-1.5a.75.75 0 0 1 .234-.544 4.146 4.146 0 0 1 2.235-1.136v-.41c0-.827 2.692-1.5 6-1.5s6 .674 6 1.5v.406a4.184 4.184 0 0 1 2.234 1.124.749.749 0 0 1 .25.559v1.5a.75.75 0 0 1-1.5 0v-1.2a3.083 3.083 0 0 0-.983-.428v8.542a1 1 0 0 1-1 1v1.5a.5.5 0 0 1-.5.5zm-4.5-4.252a.75.75 0 0 0 .751.75h3.5a.75.75 0 0 0 0-1.5h-3.5a.752.752 0 0 0-.754.751zm-2-7.248v4c0 .688 2.023 1.251 4.5 1.251s4.493-.561 4.5-1.248v-4c0-.693-2.019-1.254-4.5-1.254s-4.501.562-4.501 1.251z" transform="translate(-9038.97 -11309.998)" style="fill:#78909c"/>
</svg>
