<svg xmlns="http://www.w3.org/2000/svg" width="24" height="24" viewBox="0 0 24 24">
    <defs>
        <clipPath id="fnt05gw3za">
            <circle data-name="타원 3336" cx="11" cy="11" r="11" transform="translate(820 863)" style="fill:#fff"/>
        </clipPath>
    </defs>
    <path data-name="사각형 18432" style="fill:transparent" d="M0 0h24v24H0z"/>
    <g data-name="빼기 227" style="fill:#fff">
        <path d="M-13127.001-10801.749c-5.652 0-10.25-4.6-10.25-10.253 0-5.651 4.598-10.249 10.25-10.249h.008-.008c-5.651 0-10.249 4.598-10.249 10.249 0 5.653 4.598 10.253 10.249 10.253zm.018 0c4.712-.008 8.69-3.212 9.875-7.556a10.178 10.178 0 0 1-2.645 4.553 10.181 10.181 0 0 1-7.23 3.003zm9.857-13.015c-1.208-4.308-5.169-7.48-9.857-7.487 2.73.005 5.297 1.07 7.23 3.002a10.191 10.191 0 0 1 2.627 4.485z" style="stroke:none" transform="translate(13139 10824)"/>
        <path d="M-13127.001-10800.999c-6.065 0-11-4.936-11-11.003 0-6.064 4.935-10.999 11-10.999 2.939 0 5.7 1.145 7.778 3.222a10.926 10.926 0 0 1 3.221 7.777 10.93 10.93 0 0 1-3.22 7.78 10.924 10.924 0 0 1-7.779 3.223zm0-20.502c-5.237 0-9.499 4.262-9.499 9.499 0 5.24 4.262 9.503 9.499 9.503 5.24 0 9.503-4.263 9.503-9.503 0-5.237-4.263-9.499-9.503-9.499z" style="fill:#fff;stroke:none" transform="translate(13139 10824)"/>
    </g>
    <g data-name="사각형 35177" transform="translate(1 11.25)" style="stroke:#fff;stroke-width:1.5px;fill:#fff">
        <path style="stroke:none" d="M0 0h22v1.5H0z"/>
        <rect x=".75" y=".75" width="20.5" style="fill:none"/>
    </g>
    <g data-name="마스크 그룹 29406" style="clip-path:url(#fnt05gw3za)" transform="translate(-819 -862)">
        <path data-name="빼기 224" d="M16830 18a18.862 18.862 0 0 1-13.43-5.564A18.873 18.873 0 0 1 16811-1a18.873 18.873 0 0 1 5.564-13.434A18.866 18.866 0 0 1 16830-20a18.881 18.881 0 0 1 13.438 5.565A18.871 18.871 0 0 1 16849-1a18.871 18.871 0 0 1-5.566 13.435A18.884 18.884 0 0 1 16830 18zm0-36.5a17.52 17.52 0 0 0-17.5 17.5 17.522 17.522 0 0 0 17.5 17.5 17.52 17.52 0 0 0 17.5-17.5 17.518 17.518 0 0 0-17.5-17.5z" transform="translate(-15985.002 875)" style="fill:#fff"/>
        <path data-name="빼기 226" d="M16830 18a18.862 18.862 0 0 1-13.43-5.564A18.873 18.873 0 0 1 16811-1a18.873 18.873 0 0 1 5.564-13.434A18.866 18.866 0 0 1 16830-20a18.881 18.881 0 0 1 13.438 5.565A18.871 18.871 0 0 1 16849-1a18.871 18.871 0 0 1-5.566 13.435A18.884 18.884 0 0 1 16830 18zm0-36.5a17.52 17.52 0 0 0-17.5 17.5 17.522 17.522 0 0 0 17.5 17.5 17.52 17.52 0 0 0 17.5-17.5 17.518 17.518 0 0 0-17.5-17.5z" transform="translate(-16013.002 875)" style="fill:#fff"/>
    </g>
</svg>
