<svg xmlns="http://www.w3.org/2000/svg" width="24" height="24" viewBox="0 0 24 24">
    <g style="opacity:.6">
        <path data-name="사각형 18432" style="fill:transparent" d="M0 0h24v24H0z"/>
        <g data-name="빼기 225" style="fill:#fff">
            <path d="M14840.185-1275.255a19.568 19.568 0 0 0 2.51-8.247h4.447a10.278 10.278 0 0 1-2.641 5.488 10.283 10.283 0 0 1-4.316 2.759zm-6.373-.004a10.286 10.286 0 0 1-4.313-2.759 10.281 10.281 0 0 1-2.638-5.484h4.448a19.58 19.58 0 0 0 2.503 8.243zm3.187-.555a16.634 16.634 0 0 1-2.684-7.688h5.366a16.657 16.657 0 0 1-2.682 7.688zm10.143-10.688h-4.448a19.589 19.589 0 0 0-2.505-8.24 10.299 10.299 0 0 1 4.315 2.758 10.27 10.27 0 0 1 2.638 5.482zm-7.461 0h-5.366a16.628 16.628 0 0 1 2.684-7.683 16.645 16.645 0 0 1 2.682 7.683zm-8.372 0h-4.448a10.273 10.273 0 0 1 2.638-5.48 10.306 10.306 0 0 1 4.312-2.758 19.582 19.582 0 0 0-2.502 8.238z" style="stroke:none" transform="translate(-14825.002 1297)"/>
            <path d="M14841.798-1276.8a9.523 9.523 0 0 0 2.154-1.726 9.53 9.53 0 0 0 2.28-4.226h-2.853a20.324 20.324 0 0 1-1.581 5.952m-9.598-.004a20.366 20.366 0 0 1-1.576-5.948h-2.852a9.526 9.526 0 0 0 2.276 4.223 9.53 9.53 0 0 0 2.152 1.725m4.799-.458a15.867 15.867 0 0 0 1.84-5.49h-3.682a15.837 15.837 0 0 0 1.842 5.49m9.232-9.99a9.522 9.522 0 0 0-2.276-4.22 9.531 9.531 0 0 0-2.154-1.725 20.353 20.353 0 0 1 1.578 5.945h2.852m-7.392 0a15.852 15.852 0 0 0-1.84-5.486 15.827 15.827 0 0 0-1.842 5.486h3.682m-8.215 0c.224-2.06.756-4.061 1.575-5.942a9.515 9.515 0 0 0-4.427 5.942h2.852m7.947 13.14.001-.001a18.815 18.815 0 0 0 3.413-10.139h5.99a11.015 11.015 0 0 1-2.925 6.749 11.016 11.016 0 0 1-6.477 3.391h-.002zm-3.147 0-.002-.001a11.019 11.019 0 0 1-6.472-3.394 11.017 11.017 0 0 1-2.923-6.745h5.99a18.833 18.833 0 0 0 3.406 10.137v.002zm1.576-.4h-.001a17.397 17.397 0 0 1-3.484-9.74h6.966a17.425 17.425 0 0 1-3.48 9.74h-.001zm10.976-11.24h-5.99a18.835 18.835 0 0 0-3.409-10.135 11.024 11.024 0 0 1 6.476 3.392 11.013 11.013 0 0 1 2.923 6.742v.001zm-7.495 0h-6.966a17.39 17.39 0 0 1 3.485-9.736 17.413 17.413 0 0 1 3.481 9.735v.001zm-8.463 0h-5.99a11.009 11.009 0 0 1 9.396-10.135 18.828 18.828 0 0 0-3.406 10.134v.001z" style="fill:#fff;stroke:none" transform="translate(-14825.002 1297)"/>
        </g>
    </g>
</svg>
