<svg xmlns="http://www.w3.org/2000/svg" width="34" height="34" viewBox="0 0 34 34">
    <path data-name="합치기 539" d="M21.239 29a1.154 1.154 0 0 1-1.146-1.161v-2.2h-9.186v2.2A1.157 1.157 0 0 1 9.757 29H6.312a1.155 1.155 0 0 1-1.147-1.161v-2.2a1.154 1.154 0 0 1-1.145-1.163V6.724a5.9 5.9 0 0 0-1.72.824v1.73a1.157 1.157 0 0 1-1.15 1.161A1.156 1.156 0 0 1 0 9.277V6.958a1.16 1.16 0 0 1 .529-.975A8.21 8.21 0 0 1 4.02 4.338v-.745a2.312 2.312 0 0 1 .915-1.854C6.17.715 10.517 0 15.5 0s9.331.715 10.567 1.739a2.346 2.346 0 0 1 .915 1.854v.725a8.181 8.181 0 0 1 3.587 1.663 1.17 1.17 0 0 1 .431.957v2.34a1.148 1.148 0 1 1-2.3 0V7.48a5.877 5.877 0 0 0-1.721-.78v17.78a1.154 1.154 0 0 1-1.146 1.161v2.2A1.157 1.157 0 0 1 24.684 29zm-9.757-6.324a.866.866 0 0 0 .862.871h6.315a.869.869 0 0 0 0-1.739h-6.316a.865.865 0 0 0-.861.867zM6.312 17.4c0 .961 4.122 1.745 9.188 1.745s9.183-.783 9.183-1.745V5.8h-.007c-.176-.946-4.21-1.683-9.176-1.683s-9 .737-9.182 1.683z" transform="translate(1.501 3.001)" style="stroke:transparent;stroke-miterlimit:10;fill:#fff"/>
</svg>
