<svg xmlns="http://www.w3.org/2000/svg" width="30" height="30" viewBox="0 0 30 30">
    <path data-name="합치기 539" d="M10714-1044.61a1 1 0 0 1-1-1v-1.9h-8v1.9a1 1 0 0 1-1 1h-3a1 1 0 0 1-1-1v-1.9a1 1 0 0 1-1-1v-15.3a5.164 5.164 0 0 0-1.5.71v1.491a1 1 0 0 1-1 1 1 1 0 0 1-1-1v-2a1 1 0 0 1 .461-.84 7.186 7.186 0 0 1 3.038-1.416v-.642a1.986 1.986 0 0 1 .8-1.6c1.076-.883 4.862-1.5 9.2-1.5s8.127.616 9.2 1.5a2.015 2.015 0 0 1 .8 1.6v.625a7.156 7.156 0 0 1 3.124 1.434 1 1 0 0 1 .377.825v2.017a1 1 0 0 1-1 1 1 1 0 0 1-1-1v-1.55a5.145 5.145 0 0 0-1.5-.675v15.328a1 1 0 0 1-1 1v1.9a1 1 0 0 1-1 1zm-8.5-5.452a.751.751 0 0 0 .751.751h5.5a.75.75 0 0 0 .748-.751.75.75 0 0 0-.748-.748h-5.5a.75.75 0 0 0-.751.748zm-4.5-4.551c0 .829 3.59 1.5 8 1.5s8-.675 8-1.5v-10h-.006c-.156-.813-3.668-1.448-7.992-1.448s-7.839.635-8 1.448z" transform="translate(-10694 1071.611)" style="stroke:transparent;stroke-miterlimit:10"/>
</svg>
