<svg xmlns="http://www.w3.org/2000/svg" width="36" height="36" viewBox="0 0 36 36">
    <g data-name="ic-PE coolant">
        <path data-name="사각형 20892" style="fill:transparent" d="M0 0h36v36H0z"/>
        <path data-name="패스 32223" d="M332.782 456.473a2.561 2.561 0 0 1 1.285-2.224V441.7a1.285 1.285 0 1 1 2.57 0v1.6h4.178a.966.966 0 0 1 0 1.927h-4.178v1.927h4.178a.964.964 0 0 1 0 1.927h-4.178v1.927h4.178a.966.966 0 0 1 0 1.927h-4.178v1.3a2.57 2.57 0 1 1-3.854 2.224z" transform="translate(-317.294 -437.842)" style="fill:#b0bec5"/>
        <path data-name="패스 32231" d="m17.769 7.217-.64-.5a1.585 1.585 0 0 0-2.044.051 3.559 3.559 0 0 1-4.72.039 1.582 1.582 0 0 0-2.07-.072l-.595.454a3.464 3.464 0 0 1-4.068.178L1.57 6.035l1.041-1.617 2.07 1.328a1.571 1.571 0 0 0 1.849-.088l.59-.458a3.509 3.509 0 0 1 4.5.143 1.564 1.564 0 0 0 2.121.021 3.545 3.545 0 0 1 4.548-.182l.646.488a1.55 1.55 0 0 0 1.814.119l2.177-1.33 1 1.641-2.166 1.334a3.514 3.514 0 0 1-1.748.52.211.211 0 0 1-.083.01 3.554 3.554 0 0 1-2.16-.747zm-.53-4.787-.122-.1V.242l.512.4c1.158.877 2.339.426 3.591-.045 1.3-.5 2.767-1.061 4.2.045l.128.092v2.09l-.518-.395c-1.152-.881-2.333-.43-3.585.045a6.709 6.709 0 0 1-2.372.59 2.938 2.938 0 0 1-1.834-.634zm-13.131.045C2.856 2 1.682 1.549.519 2.43L0 2.824V.73L.129.639C1.57-.467 3.04.1 4.337.594c1.247.471 2.427.922 3.584.045l.519-.4v2.095l-.128.1a2.939 2.939 0 0 1-1.838.635 6.647 6.647 0 0 1-2.366-.594z" transform="translate(5.282 17.219)" style="stroke:transparent;fill:#b0bec5"/>
        <path data-name="패스 32230" d="M.785-2.853a2.039 2.039 0 0 1-.157.832 1.6 1.6 0 0 1-.436.589 1.914 1.914 0 0 1-.666.355 2.779 2.779 0 0 1-.836.121h-.944v2.312h-1.215V-4.76h2.159a2.779 2.779 0 0 1 .836.121 1.874 1.874 0 0 1 .666.36 1.636 1.636 0 0 1 .436.6 2.047 2.047 0 0 1 .157.826zm-1.259 0a.851.851 0 0 0-.265-.706 1.071 1.071 0 0 0-.688-.211h-.827v1.826h.827a1.087 1.087 0 0 0 .688-.207.838.838 0 0 0 .265-.702zm6.242 4.209H1.784V-4.76h3.984v.989H3v1.538h2.336v.989H3v1.61h2.77z" transform="translate(16.999 32.049)" style="stroke:#b0bec5;stroke-width:.3px;fill:#b0bec5"/>
    </g>
</svg>
