<svg xmlns="http://www.w3.org/2000/svg" width="36" height="36" viewBox="0 0 36 36">
    <g data-name="ic-BATT coolant">
        <path data-name="사각형 35184" style="fill:none" d="M0 0h36v36H0z"/>
        <path data-name="패스 32214" d="M332.782 456.418a2.553 2.553 0 0 1 1.28-2.216v-12.509a1.28 1.28 0 1 1 2.561 0v1.6h4.164a.963.963 0 0 1 0 1.921h-4.164v1.921h4.164a.96.96 0 1 1 0 1.921h-4.164v1.921h4.164a.963.963 0 0 1 0 1.921h-4.164v1.3a2.561 2.561 0 1 1-3.841 2.216z" transform="translate(-317.419 -437.916)" style="fill:#b0bec5"/>
        <path data-name="패스 32222" d="m7920.49 17264.652-.638-.494a1.573 1.573 0 0 0-2.035.053 3.545 3.545 0 0 1-4.706.035 1.568 1.568 0 0 0-2.058-.07l-.593.451a3.453 3.453 0 0 1-4.055.174l-2.059-1.324 1.037-1.613 2.063 1.324a1.564 1.564 0 0 0 1.842-.088l.587-.453a3.5 3.5 0 0 1 4.489.143 1.566 1.566 0 0 0 2.113.023 3.522 3.522 0 0 1 4.532-.184l.645.488a1.547 1.547 0 0 0 1.808.109l2.17-1.32 1 1.635-2.163 1.33a3.542 3.542 0 0 1-1.741.516.452.452 0 0 1-.084.01 3.58 3.58 0 0 1-2.154-.745zm-.526-4.77-.122-.1v-2.086l.51.393c1.154.875 2.331.43 3.579-.047 1.293-.49 2.757-1.051 4.188.047l.128.1v2.084l-.512-.393c-1.153-.879-2.329-.43-3.577.043a6.752 6.752 0 0 1-2.363.586 2.915 2.915 0 0 1-1.831-.626zm-13.087.043c-1.248-.473-2.419-.922-3.578-.043l-.517.393v-2.084l.128-.1c1.438-1.1 2.9-.537 4.194-.047 1.242.477 2.419.922 3.572.047l.516-.393v2.086l-.121.1a2.943 2.943 0 0 1-1.837.629 6.715 6.715 0 0 1-2.357-.587z" transform="translate(-7897.592 -17240.363)" style="stroke:transparent;fill:#b0bec5"/>
        <path data-name="패스 32221" d="M7919.652 17263.813v-5.119H7918v-1.232h4.775v1.232h-1.653v5.119zm-4.882 0v-5.119h-1.659v-1.232h4.782v1.232h-1.658v5.119zm-2.662 0-.433-1.307h-2.092l-.422 1.307h-1.553l.056-.174 2.157-6.178h1.626l.027.082 2.186 6.27zm-1.593-4.148-.526 1.6h1.28l-.521-1.6a5.729 5.729 0 0 1-.115-.385 6.49 6.49 0 0 1-.117.384zm-7.733 4.148v-6.352h2.408a2.529 2.529 0 0 1 .821.127 1.887 1.887 0 0 1 .638.367 1.752 1.752 0 0 1 .417.559 1.723 1.723 0 0 1 .144.7 1.493 1.493 0 0 1-.212.787 1.582 1.582 0 0 1-.382.434 2.076 2.076 0 0 1 .666.5 1.494 1.494 0 0 1 .354 1.014 1.709 1.709 0 0 1-.583 1.373 2.4 2.4 0 0 1-1.619.494zm1.471-1.207h1.06a.834.834 0 0 0 .627-.2.7.7 0 0 0 .188-.516.725.725 0 0 0-.188-.529.851.851 0 0 0-.627-.189h-1.06zm0-2.635h.678a.777.777 0 0 0 .6-.18.651.651 0 0 0 .172-.473.66.66 0 0 0-.172-.473.785.785 0 0 0-.6-.178h-.678z" transform="translate(-7894.576 -17230.457)" style="stroke:transparent;fill:#b0bec5"/>
    </g>
</svg>
