<svg xmlns="http://www.w3.org/2000/svg" width="28.002" height="27.998" viewBox="0 0 28.002 27.998">
    <path data-name="빼기 18" d="M-5949 21322a13.91 13.91 0 0 1-9.9-4.1 13.905 13.905 0 0 1-4.1-9.9 13.905 13.905 0 0 1 4.1-9.9 13.919 13.919 0 0 1 9.9-4.1 13.912 13.912 0 0 1 9.9 4.1 13.911 13.911 0 0 1 4.1 9.9 13.9 13.9 0 0 1-4.1 9.9 13.9 13.9 0 0 1-9.9 4.1zm-3.5-10a1.505 1.505 0 0 0-1.5 1.5 1.5 1.5 0 0 0 1.5 1.5h7a1.5 1.5 0 0 0 1.5-1.5 1.5 1.5 0 0 0-1.5-1.5zm8.5-8a2 2 0 0 0-2 2 2 2 0 0 0 2 2 2 2 0 0 0 2-2 2 2 0 0 0-2-2zm-10 0a2 2 0 0 0-2 2 2 2 0 0 0 2 2 2 2 0 0 0 2-2 2 2 0 0 0-2-2z" transform="translate(5963.002 -21294.002)" style="fill:#5d99c6"/>
</svg>
