<svg xmlns="http://www.w3.org/2000/svg" width="16" height="16" viewBox="0 0 16 16">
    <path data-name="사각형 18389" style="fill:transparent" d="M0 0h16v16H0z"/>
    <g data-name="그룹 17403">
        <path data-name="사각형 19493" transform="translate(4 2.75)" style="fill:#78909c" d="M0 0h2v12H0z"/>
        <path data-name="빼기 20" d="M8854.719 13653.833h-6l2.626-3.5h.745l2.628 3.5z" transform="translate(-8846.719 -13650.082)" style="fill:#78909c"/>
        <path data-name="빼기 21" d="M8849.717 13656.834h-2v-1.5a6.508 6.508 0 0 1 8-6.326v2.083a4.451 4.451 0 0 0-1.5-.258 4.507 4.507 0 0 0-4.5 4.5v1.5z" transform="translate(-8843.719 -13641.082)" style="fill:#78909c"/>
        <path data-name="빼기 22" d="M8854.719 13653.833h-6l2.623-3.5h.751l2.625 3.5z" transform="rotate(90 11253.901 2410.932)" style="fill:#78909c"/>
    </g>
</svg>
