<svg xmlns="http://www.w3.org/2000/svg" width="28" height="28" viewBox="0 0 28 28">
    <g data-name="ic-BATT coolant-green">
        <path data-name="사각형 20892" style="fill:transparent" d="M0 0h28v28H0z"/>
        <path data-name="합치기 396" d="M10591 18428.5a1.993 1.993 0 0 1 1-1.73v-9.77a1 1 0 1 1 2 0v1.248h3.252a.752.752 0 0 1 0 1.5H10594v1.5h3.252a.75.75 0 0 1 0 1.5H10594v1.5h3.252a.752.752 0 0 1 0 1.5H10594v1.016a2 2 0 1 1-3 1.73z" transform="translate(-10579 -18414)" style="fill:#5df2d6"/>
        <g data-name="그룹 18687">
            <path data-name="패스 16304" d="M6.067 1.445c-2.023 1.54-4.044-1.54-6.067 0v-1c2.022-1.54 4.043 1.54 6.066 0z" transform="translate(4.308 13.652)" style="stroke:#5df2d6;stroke-linecap:round;stroke-width:.3px;fill:#5df2d6"/>
            <path data-name="패스 16305" d="M19.385.445c-2.022-1.54-4.044 1.54-6.066 0v1c2.022 1.54 4.044-1.54 6.066 0z" transform="translate(4.308 13.652)" style="stroke:#5df2d6;stroke-linecap:round;stroke-width:.3px;fill:#5df2d6"/>
            <path data-name="패스 16306" d="M15.259 5.7a2.513 2.513 0 0 1-1.529-.531l-.5-.384a1.481 1.481 0 0 0-1.906.048 2.52 2.52 0 0 1-3.346.03A1.483 1.483 0 0 0 6.049 4.8l-.455.347a2.451 2.451 0 0 1-2.879.129l-1.4-.9.541-.842 1.4.9a1.472 1.472 0 0 0 1.731-.084L5.442 4a2.479 2.479 0 0 1 3.185.1 1.478 1.478 0 0 0 1.986.017 2.511 2.511 0 0 1 3.221-.132l.5.384a1.461 1.461 0 0 0 1.7.1l1.476-.9.52.853-1.476.9a2.48 2.48 0 0 1-1.3.37" transform="translate(4.308 13.652)" style="stroke:#5df2d6;stroke-linecap:round;stroke-width:.3px;fill:#5df2d6"/>
        </g>
        <text transform="translate(14 26)" style="font-size:7px;font-family:HyundaiSansTextKRBold,Hyundai Sans Text KR;letter-spacing:-.025em;fill:#5df2d6"><tspan x="-7.805" y="0">BATT</tspan></text>
    </g>
</svg>
