<svg xmlns="http://www.w3.org/2000/svg" width="20" height="20" viewBox="0 0 20 20">
    <path data-name="합치기 539" d="M12.54 16.948a.678.678 0 0 1-.676-.679v-1.286H6.439v1.286a.679.679 0 0 1-.678.679H3.727a.678.678 0 0 1-.677-.679v-1.286a.678.678 0 0 1-.677-.679V3.93a3.5 3.5 0 0 0-1.018.481v1.011a.678.678 0 1 1-1.355 0V4.066A.678.678 0 0 1 .312 3.5a4.87 4.87 0 0 1 2.06-.96V2.1a1.347 1.347 0 0 1 .54-1.084C3.643.418 6.209 0 9.15 0s5.51.418 6.239 1.016a1.367 1.367 0 0 1 .54 1.084v.424a4.849 4.849 0 0 1 2.118.972.68.68 0 0 1 .256.559v1.367a.678.678 0 1 1-1.355 0V4.371a3.482 3.482 0 0 0-1.018-.458V14.3a.678.678 0 0 1-.677.679v1.286a.679.679 0 0 1-.678.679zm-5.761-3.7a.509.509 0 0 0 .509.509h3.728a.508.508 0 0 0 0-1.016H7.288a.508.508 0 0 0-.509.511zm-3.052-3.081c0 .562 2.434 1.02 5.425 1.02s5.422-.458 5.422-1.02V3.388c-.106-.551-2.487-.981-5.418-.981s-5.314.431-5.422.981z" transform="translate(1.018 1.02)" style="stroke:transparent;stroke-miterlimit:10"/>
</svg>
