<svg xmlns="http://www.w3.org/2000/svg" width="20" height="20" viewBox="0 0 20 20">
    <path data-name="합치기 539" d="M12.529 16.932a.677.677 0 0 1-.676-.678V14.97H6.434v1.285a.679.679 0 0 1-.678.678H3.724a.678.678 0 0 1-.677-.678V14.97a.678.678 0 0 1-.676-.678V3.926a3.493 3.493 0 0 0-1.017.481v1.01a.677.677 0 1 1-1.354 0V4.063a.676.676 0 0 1 .312-.569 4.869 4.869 0 0 1 2.058-.959V2.1a1.345 1.345 0 0 1 .54-1.083C3.64.417 6.2 0 9.143 0s5.5.417 6.233 1.015a1.365 1.365 0 0 1 .54 1.083v.423a4.847 4.847 0 0 1 2.116.971.676.676 0 0 1 .255.558v1.367a.677.677 0 1 1-1.354 0v-1.05a3.483 3.483 0 0 0-1.017-.457v10.381a.678.678 0 0 1-.676.678v1.285a.679.679 0 0 1-.678.678zM6.773 13.24a.509.509 0 0 0 .508.509h3.725a.508.508 0 0 0 0-1.015H7.282a.508.508 0 0 0-.509.506zm-3.049-3.082c0 .561 2.431 1.019 5.42 1.019s5.417-.457 5.417-1.019V3.385c-.106-.55-2.484-.981-5.413-.981s-5.31.43-5.417.981z" transform="translate(.97 1.037)" style="fill:#b0bec5;stroke:transparent;stroke-miterlimit:10"/>
</svg>
