<svg xmlns="http://www.w3.org/2000/svg" width="20" height="20" viewBox="0 0 20 20">
    <path data-name="합치기 539" d="M12.26 16.569a.662.662 0 0 1-.661-.664v-1.257H6.3v1.257a.664.664 0 0 1-.663.664H3.644a.663.663 0 0 1-.662-.664v-1.257a.663.663 0 0 1-.662-.664V3.842a3.427 3.427 0 0 0-1 .47V5.3A.663.663 0 1 1 0 5.3V3.976a.661.661 0 0 1 .305-.557 4.765 4.765 0 0 1 2.015-.94v-.426a1.317 1.317 0 0 1 .528-1.06C3.562.408 6.071 0 8.946 0s5.387.408 6.1.993a1.336 1.336 0 0 1 .528 1.059v.414a4.741 4.741 0 0 1 2.07.95.664.664 0 0 1 .25.547V5.3a.662.662 0 1 1-1.325 0V4.273a3.417 3.417 0 0 0-1-.448v10.16a.663.663 0 0 1-.662.664v1.257a.664.664 0 0 1-.663.664zm-5.633-3.613a.5.5 0 0 0 .5.5h3.645a.5.5 0 0 0 0-.993H7.125a.5.5 0 0 0-.498.493zM3.644 9.94c0 .549 2.379 1 5.3 1s5.3-.448 5.3-1V3.312c-.1-.539-2.431-.96-5.3-.96s-5.2.421-5.3.96z" transform="translate(.995 1.443)" style="fill:#4f8cf6;stroke:transparent;stroke-miterlimit:10"/>
</svg>
