<svg xmlns="http://www.w3.org/2000/svg" xmlns:xlink="http://www.w3.org/1999/xlink" width="160" height="160" viewBox="0 0 160 160">
    <defs>
        <linearGradient id="idckp9j81b" x1=".5" x2=".5" y2="1" gradientUnits="objectBoundingBox">
            <stop offset="0" stop-color="#2889f7"/>
            <stop offset="1" stop-color="#0762ae"/>
        </linearGradient>
        <linearGradient id="b2g312kpmd" x1=".5" x2=".5" y2="1" gradientUnits="objectBoundingBox">
            <stop offset="0" stop-color="#fff"/>
            <stop offset="1" stop-color="#eceff1"/>
        </linearGradient>
        <linearGradient id="irvk5ohtme" x1=".5" y1="1.084" x2=".5" y2=".573" gradientUnits="objectBoundingBox">
            <stop offset="0" stop-color="#5c8cde"/>
            <stop offset="1" stop-color="#78e3f1"/>
        </linearGradient>
        <linearGradient id="p3kjg02k9a" x1="1.282" y1="1" x2="1.257" y2=".059" gradientUnits="objectBoundingBox">
            <stop offset="0" stop-color="#2979ff"/>
            <stop offset="1" stop-color="#26c6da"/>
        </linearGradient>
        <linearGradient id="wr689bauuf" x1="-.282" x2="-.257" y2=".059" xlink:href="#p3kjg02k9a"/>
        <linearGradient id="xalrja7zjg" x1=".5" x2=".5" y2="1" gradientUnits="objectBoundingBox">
            <stop offset="0" stop-color="#00bfa5"/>
            <stop offset="1" stop-color="#80dc84"/>
        </linearGradient>
        <filter id="s165xe91qc" x="30.001" y="25.997" width="99.999" height="114.001" filterUnits="userSpaceOnUse">
            <feOffset dy="3"/>
            <feGaussianBlur stdDeviation="5" result="blur"/>
            <feFlood flood-opacity=".102"/>
            <feComposite operator="in" in2="blur"/>
            <feComposite in="SourceGraphic"/>
        </filter>
    </defs>
    <path data-name="사각형 7093" style="fill:none" d="M0 0h160v160H0z"/>
    <g data-name="그룹 19281">
        <path data-name="합치기 2" d="M0 30 47 0l47 30-47 36z" transform="translate(33 44)" style="fill:url(#idckp9j81b)"/>
        <g style="filter:url(#s165xe91qc)">
            <path data-name="빼기 203" d="M70 84H0V0h59.355L70 10.643V84z" transform="translate(45.003 37.999)" style="fill:url(#b2g312kpmd)"/>
        </g>
        <path data-name="빼기 2" d="M89.577 54H4.424A4.628 4.628 0 0 1 0 49.2V0l47 30L94 0v49.2a4.628 4.628 0 0 1-4.423 4.8z" transform="translate(33 74)" style="fill:url(#irvk5ohtme)"/>
        <path data-name="패스 16537" d="m0 0 40 25.5L13.484 54H4c-2.207 0-4-2.149-4-4.8z" transform="translate(33.001 74)" style="fill:url(#p3kjg02k9a)"/>
        <path data-name="패스 32209" d="M40 0 0 25.5 26.516 54H36c2.207 0 4-2.149 4-4.8z" transform="translate(87 74)" style="fill:url(#wr689bauuf)"/>
        <path data-name="패스 30261" d="M178.891 172.066h-4.307L164.031 160.7l4.307-4 8.4 9.047 14.986-16.147 4.307 4z" transform="translate(-100.031 -92.574)" style="fill:url(#xalrja7zjg)"/>
    </g>
</svg>
