<svg xmlns="http://www.w3.org/2000/svg" width="20" height="20" viewBox="0 0 20 20">
    <path data-name="패스 15639" d="M10 0a10 10 0 1 0 10 10A10 10 0 0 0 10 0M5 8.571A1.429 1.429 0 1 1 6.429 10 1.428 1.428 0 0 1 5 8.571m9 6.44a1.071 1.071 0 0 1-1.514.062 4.441 4.441 0 0 0-2.432-1.145A4.945 4.945 0 0 0 7.482 15.1a1.071 1.071 0 0 1-1.394-1.627 7.01 7.01 0 0 1 3.969-1.687A6.51 6.51 0 0 1 13.94 13.5a1.07 1.07 0 0 1 .06 1.511M13.571 10A1.429 1.429 0 1 1 15 8.571 1.428 1.428 0 0 1 13.571 10" style="fill:#bb848d"/>
    <path data-name="사각형 19465" style="fill:none" d="M0 0h20v20H0z"/>
</svg>
