<svg xmlns="http://www.w3.org/2000/svg" xmlns:xlink="http://www.w3.org/1999/xlink" width="20" height="20" viewBox="0 0 20 20">
  <defs>
    <style>
      .cls-1 {
        fill: none;
      }

      .cls-2 {
        clip-path: url(#clip-path);
      }

      .cls-3 {
        fill: #4f9a94;
      }
    </style>
    <clipPath id="clip-path">
      <rect id="사각형_21538" data-name="사각형 21538" class="cls-1" width="20" height="20" transform="translate(0 -0.04)"/>
    </clipPath>
  </defs>
  <g id="ic-good-m" class="cls-2" transform="translate(0 0.041)">
    <path id="패스_16432" data-name="패스 16432" class="cls-3" d="M9.979,0a9.979,9.979,0,1,0,9.979,9.979A9.979,9.979,0,0,0,9.979,0M4.99,8.554A1.426,1.426,0,1,1,6.415,9.979,1.425,1.425,0,0,1,4.99,8.554m8.922,5.063a6.5,6.5,0,0,1-3.876,1.709,7,7,0,0,1-3.96-1.684,1.069,1.069,0,0,1,1.391-1.624,4.934,4.934,0,0,0,2.569,1.169,4.433,4.433,0,0,0,2.429-1.145,1.069,1.069,0,0,1,1.446,1.575m-.368-3.638a1.426,1.426,0,1,1,1.426-1.426,1.425,1.425,0,0,1-1.426,1.426"/>
  </g>
</svg>
