<svg xmlns="http://www.w3.org/2000/svg" width="19.998" height="20.002" viewBox="0 0 19.998 20.002">
  <defs>
    <style>
      .cls-1 {
        fill: #5d99c6;
      }
    </style>
  </defs>
  <g id="ic-normal-m" transform="translate(-569 -1418.998)">
    <path id="빼기_18" data-name="빼기 18" class="cls-1" d="M10,20A10,10,0,1,1,20,10,10.011,10.011,0,0,1,10,20ZM7.5,12.856A1.071,1.071,0,0,0,7.5,15h5a1.071,1.071,0,1,0,0-2.143Zm6.071-5.714A1.428,1.428,0,1,0,15,8.571,1.43,1.43,0,0,0,13.572,7.142Zm-7.142,0A1.428,1.428,0,1,0,7.858,8.571,1.43,1.43,0,0,0,6.43,7.142Z" transform="translate(568.998 1419.001)"/>
  </g>
</svg>
