<svg xmlns="http://www.w3.org/2000/svg" width="16" height="16.1" viewBox="0 0 16 16.1">
    <path data-name="사각형 25891" style="fill:transparent" d="M0 0h16v16H0z"/>
    <g data-name="그룹 23206">
        <g data-name="사각형 25887" transform="translate(0 1.6)" style="stroke-width:1.5px;stroke:#000;fill:none">
            <rect width="16" height="14.5" rx="1" style="stroke:none"/>
            <rect x=".75" y=".75" width="14.5" height="13" rx=".25" style="fill:none"/>
        </g>
        <g data-name="사각형 25890" style="stroke:#000;fill:none">
            <path style="stroke:none" d="M0 0h1.28v14.933H0z" transform="rotate(90 5.467 10)"/>
            <path style="fill:none" d="M.5.5h.28v13.933H.5z" transform="rotate(90 5.467 10)"/>
        </g>
        <g data-name="그룹 23205">
            <g data-name="사각형 25888" style="stroke:#000;fill:none">
                <path style="stroke:none" d="M0 0h1.5v4H0z" transform="translate(2.56)"/>
                <path style="fill:none" d="M.5.5H1v3H.5z" transform="translate(2.56)"/>
            </g>
            <g data-name="사각형 25889" style="stroke:#000;fill:none">
                <path style="stroke:none" d="M0 0h1.5v4H0z" transform="translate(11.86)"/>
                <path style="fill:none" d="M.5.5H1v3H.5z" transform="translate(11.86)"/>
            </g>
        </g>
        <g data-name="다각형 93" style="fill:none">
            <path d="M3.865 1.022a.5.5 0 0 1 .913 0L5.5 2.646a.5.5 0 0 0 .391.292l1.735.229a.5.5 0 0 1 .286.852l-1.305 1.29a.5.5 0 0 0-.141.446L6.8 7.579a.5.5 0 0 1-.742.522l-1.486-.859a.5.5 0 0 0-.5 0L2.587 8.1a.5.5 0 0 1-.742-.522l.332-1.824a.5.5 0 0 0-.141-.446L.728 4.019a.5.5 0 0 1 .286-.852l1.735-.229a.5.5 0 0 0 .391-.292z" style="stroke:none" transform="translate(3.679 5.599)"/>
            <path d="M4.321 3.587c-.267.38-.662.66-1.111.784.333.392.5.897.471 1.409a2.02 2.02 0 0 1 1.28 0 1.998 1.998 0 0 1 .472-1.409 2.022 2.022 0 0 1-1.112-.784m0-2.861c.185 0 .369.098.457.296l.726 1.624a.5.5 0 0 0 .39.292l1.735.23a.5.5 0 0 1 .286.851l-1.308 1.29a.5.5 0 0 0-.14.445l.331 1.825a.5.5 0 0 1-.742.522l-1.484-.86a.5.5 0 0 0-.501 0l-1.484.86a.5.5 0 0 1-.743-.522l.332-1.825a.5.5 0 0 0-.14-.445L.728 4.019a.5.5 0 0 1 .285-.852l1.735-.229a.5.5 0 0 0 .39-.292l.727-1.624A.493.493 0 0 1 4.32.726z" style="fill:#000;stroke:none" transform="translate(3.679 5.599)"/>
        </g>
    </g>
</svg>
