<svg xmlns="http://www.w3.org/2000/svg" width="36" height="36" viewBox="0 0 36 36">
    <path data-name="빼기 185" d="M17406-16063c-.062 0-6.271-.006-7.814-.42a2.5 2.5 0 0 1-1.768-1.767 26.248 26.248 0 0 1-.418-4.813 26.251 26.251 0 0 1 .418-4.814 2.5 2.5 0 0 1 1.768-1.768c1.543-.413 7.752-.418 7.814-.418s6.271 0 7.811.418a2.506 2.506 0 0 1 1.77 1.768 25.95 25.95 0 0 1 .42 4.814 25.948 25.948 0 0 1-.42 4.813 2.5 2.5 0 0 1-1.77 1.767c-1.54.414-7.75.42-7.811.42zm-2-10v6l5.2-3-5.2-3z" transform="translate(-17388 16088)" style="opacity:.4;fill:#fff"/>
</svg>
