<svg xmlns="http://www.w3.org/2000/svg" width="48" height="48" viewBox="0 0 48 48">
    <path data-name="사각형 18451" style="fill:transparent" d="M0 0h48v48H0z"/>
    <g data-name="그룹 20097">
        <path data-name="선 339" transform="translate(31 16)" style="stroke:#cfd9de;stroke-width:1.5px;fill:none" d="M0 0h4"/>
        <path data-name="선 343" transform="translate(13 32)" style="stroke:#cfd9de;stroke-width:1.5px;fill:none" d="M0 0h10"/>
        <path data-name="선 344" transform="translate(20 24)" style="stroke:#cfd9de;stroke-width:1.5px;fill:none" d="M0 0h15"/>
        <g data-name="사각형 22070" style="stroke:#cfd9de;stroke-width:1.5px;fill:none">
            <path style="stroke:none" d="M0 0h6v7H0z" transform="translate(26 12.5)"/>
            <path style="fill:none" d="M.75.75h4.5v5.5H.75z" transform="translate(26 12.5)"/>
        </g>
        <g data-name="사각형 22071" style="stroke:#cfd9de;stroke-width:1.5px;fill:none">
            <path style="stroke:none" d="M0 0h6v7H0z" transform="translate(15 20.5)"/>
            <path style="fill:none" d="M.75.75h4.5v5.5H.75z" transform="translate(15 20.5)"/>
        </g>
        <g data-name="사각형 22072" style="stroke:#cfd9de;stroke-width:1.5px;fill:none">
            <path style="stroke:none" d="M0 0h6v7H0z" transform="translate(22 28.5)"/>
            <path style="fill:none" d="M.75.75h4.5v5.5H.75z" transform="translate(22 28.5)"/>
        </g>
        <path data-name="선 345" transform="translate(13 16)" style="stroke:#cfd9de;stroke-width:1.5px;fill:none" d="M0 0h14"/>
        <path data-name="선 346" transform="translate(13 24)" style="stroke:#cfd9de;stroke-width:1.5px;fill:none" d="M0 0h3"/>
        <path data-name="선 347" transform="translate(27 32)" style="stroke:#cfd9de;stroke-width:1.5px;fill:none" d="M0 0h8"/>
    </g>
</svg>
