<svg xmlns="http://www.w3.org/2000/svg" width="48" height="48" viewBox="0 0 48 48">
    <path data-name="사각형 18455" style="fill:transparent" d="M0 0h48v48H0z"/>
    <g data-name="그룹 15202">
        <path data-name="사각형 18346" style="fill:transparent" d="M0 0h24v24H0z" transform="translate(12 12)"/>
        <g data-name="타원 2343" transform="translate(20 20)" style="stroke:#cfd9de;stroke-width:1.5px;fill:none">
            <circle cx="4" cy="4" r="4" style="stroke:none"/>
            <circle cx="4" cy="4" r="3.25" style="fill:none"/>
        </g>
        <g data-name="다각형 79" style="fill:none">
            <path d="M16.5 0 22 10l-5.5 10h-11L0 10 5.5 0z" style="stroke:none" transform="translate(13 14)"/>
            <path d="M6.387 1.5 1.712 10l4.675 8.5h9.226l4.675-8.5-4.675-8.5H6.387M5.5 0h11L22 10l-5.5 10h-11L0 10 5.5 0z" style="fill:#cfd9de;stroke:none" transform="translate(13 14)"/>
        </g>
    </g>
</svg>
