<svg xmlns="http://www.w3.org/2000/svg" width="48" height="48" viewBox="0 0 48 48">
    <g>
        <rect data-name="사각형 19028" width="48" height="48" rx="8" style="fill:none"/>
        <g data-name="그룹 16367">
            <path data-name="사각형 18449" style="fill:transparent" d="M0 0h48v48H0z"/>
            <g data-name="그룹 16593">
                <path data-name="사각형 18389" transform="translate(12 12)" style="fill:transparent" d="M0 0h24v24H0z"/>
                <g data-name="패스 16466" style="fill:none">
                    <path d="M12 0A12 12 0 1 1 0 12 12 12 0 0 1 12 0z" style="stroke:none" transform="translate(12 12)"/>
                    <path d="M12 2C6.486 2 2 6.486 2 12s4.486 10 10 10 10-4.486 10-10S17.514 2 12 2m0-2c6.627 0 12 5.373 12 12s-5.373 12-12 12S0 18.627 0 12 5.373 0 12 0z" style="fill:#fff;stroke:none" transform="translate(12 12)"/>
                </g>
                <path data-name="선 334" transform="translate(13 24)" style="stroke:#fff;stroke-width:1.5px;fill:none" d="M0 0h8"/>
                <path data-name="선 336" transform="translate(27 24)" style="stroke:#fff;stroke-width:1.5px;fill:none" d="M0 0h8"/>
                <path data-name="선 335" transform="translate(24 27)" style="stroke:#fff;stroke-width:1.5px;fill:none" d="M0 0v8"/>
                <g data-name="타원 2765" transform="translate(20 20)" style="fill:#fff;stroke:#fff;stroke-width:1.5px">
                    <circle cx="4" cy="4" r="4" style="stroke:none"/>
                    <circle cx="4" cy="4" r="3.25" style="fill:none"/>
                </g>
            </g>
        </g>
    </g>
</svg>
