<svg xmlns="http://www.w3.org/2000/svg" width="48" height="48" viewBox="0 0 48 48">
    <path data-name="사각형 19094" style="fill:transparent" d="M0 0h48v48H0z"/>
    <g data-name="그룹 16458">
        <g data-name="그룹 15199">
            <path data-name="사각형 18337" style="fill:transparent" d="M0 0h24v24H0z" transform="translate(12 12)"/>
            <path data-name="패스 15377" d="M24 12A12.013 12.013 0 0 0 12 0h-.073a12 12 0 0 0 0 23.993H12A12.014 12.014 0 0 0 24 12m-8 7.25H8v-1.5h8zm-1.192-8.277a3.01 3.01 0 0 1 .138.492 2.755 2.755 0 0 1 .044.438c0 .033.01.064.01.1a3 3 0 0 1-3 3 2.82 2.82 0 0 1-.507-.051 2.815 2.815 0 0 1-.419-.11 2.984 2.984 0 0 1-.568-.252l-1.981 1.944-1.05-1.069 1.961-1.928a2.977 2.977 0 0 1-.265-.579 2.868 2.868 0 0 1-.119-.439A2.81 2.81 0 0 1 9 12a2.986 2.986 0 0 1 2.89-2.989c.037 0 .072-.011.11-.011a2.864 2.864 0 0 1 .559.057 2.751 2.751 0 0 1 .373.107c.044.015.09.024.132.041a2.958 2.958 0 0 1 .875.526l3.548-3.282 1.018 1.1z" style="fill:#fff" transform="translate(12 12)"/>
            <path data-name="패스 15378" d="M12 10.5a1.5 1.5 0 1 0 1.5 1.5 1.5 1.5 0 0 0-1.5-1.5" style="fill:#fff" transform="translate(12 12)"/>
        </g>
    </g>
</svg>
