<svg xmlns="http://www.w3.org/2000/svg" width="24" height="24" viewBox="0 0 24 24">
    <path data-name="사각형 18213" style="fill:transparent" d="M0 0h24v24H0z"/>
    <g data-name="사각형 6324">
        <path data-name="패스 12441" d="M8.5 0A8.664 8.664 0 0 1 17 8.82v9.37H0V8.82A8.664 8.664 0 0 1 8.5 0z" style="fill:none" transform="translate(3.5 1)"/>
        <path data-name="패스 12442" d="M8.5.75a7.915 7.915 0 0 1 7.75 8.07v8.62H.75V8.82A7.915 7.915 0 0 1 8.5.75z" transform="translate(3.5 1)" style="stroke-width:1.5px;stroke:#fff;fill:none"/>
    </g>
    <g data-name="사각형 6325" style="stroke:#fff;fill:none">
        <path style="stroke:none" d="M0 0h21v1.654H0z" transform="translate(1.5 17.537)"/>
        <path style="fill:none" d="M.5.5h20v.654H.5z" transform="translate(1.5 17.537)"/>
    </g>
    <g data-name="사각형 6326">
        <path data-name="패스 12443" d="M0 0h7.717v1.654a3.859 3.859 0 0 1-3.858 3.858A3.859 3.859 0 0 1 0 1.654z" style="fill:none" transform="translate(8.166 17.537)"/>
        <path data-name="패스 12444" d="M.75.75h6.217v.9a3.109 3.109 0 0 1-3.108 3.112A3.109 3.109 0 0 1 .75 1.654z" style="stroke-width:1.5px;stroke:#fff;fill:none" transform="translate(8.166 17.537)"/>
    </g>
</svg>
