<svg xmlns="http://www.w3.org/2000/svg" width="48" height="48" viewBox="0 0 48 48">
    <path data-name="사각형 19098" style="fill:transparent" d="M0 0h48v48H0z"/>
    <g data-name="그룹 16454">
        <g data-name="그룹 15202">
            <g data-name="빼기 9" style="fill:#fff">
                <path d="M-174.943-8387.751h-10.114l-5.088-9.249 5.088-9.25h10.114l5.088 9.25-5.088 9.249zM-180-8401.75c-2.62 0-4.75 2.13-4.75 4.75a4.756 4.756 0 0 0 4.75 4.751c2.62 0 4.75-2.13 4.75-4.751 0-2.62-2.13-4.75-4.75-4.75z" style="stroke:none" transform="translate(204 8421)"/>
                <path d="m-175.387-8388.501 4.676-8.499-4.676-8.5h-9.227l-4.675 8.5 4.675 8.499h9.227M-180-8402.5c3.033 0 5.5 2.468 5.5 5.5a5.507 5.507 0 0 1-5.5 5.501 5.507 5.507 0 0 1-5.5-5.501c0-3.032 2.467-5.5 5.5-5.5m5.5 15.499h-11l-5.501-9.999 5.5-10h11.001l5.5 10-5.5 9.999zM-180-8401c-2.206 0-4 1.794-4 4a4.005 4.005 0 0 0 4 4.001c2.206 0 4-1.795 4-4.001 0-2.206-1.794-4-4-4z" style="fill:#fff;stroke:none" transform="translate(204 8421)"/>
            </g>
            <path data-name="사각형 18346" style="fill:transparent" d="M0 0h24v24H0z" transform="translate(12 12)"/>
        </g>
    </g>
</svg>
