<svg xmlns="http://www.w3.org/2000/svg" width="102" height="41.001" viewBox="0 0 102 41.001">
    <g style="opacity:.6">
        <g data-name="그룹 1591">
            <g data-name="그룹 1589">
                <g data-name="그룹 1586">
                    <path data-name="패스 703" d="M62.879 13.719h3.06V30.1h-3.06z" transform="translate(-47.303 -8.805)" style="fill:#fff"/>
                    <path data-name="패스 704" d="M85.84 33.949h-3.061v-1.735a4.422 4.422 0 0 1-3.925 2.024c-3.228 0-4.723-2.217-4.723-5.4v-7.3h3.06V28.5c0 1.975.939 3.01 2.745 3.01a2.91 2.91 0 0 0 2.842-2.168v-7.8h3.062z" transform="translate(-52.838 -12.652)" style="fill:#fff"/>
                    <path data-name="패스 705" d="M101.263 27.5c0-3.878 2.626-6.528 6.241-6.528a5.716 5.716 0 0 1 5.974 6.071 12.3 12.3 0 0 1-.144 1.495h-8.987a3.3 3.3 0 0 0 3.615 2.793 4.438 4.438 0 0 0 3.516-1.829l1.689 2a6.84 6.84 0 0 1-5.348 2.481 6.255 6.255 0 0 1-6.556-6.483zm3.131-1.469h6.047A2.69 2.69 0 0 0 107.5 23.5a3.033 3.033 0 0 0-3.106 2.531z" transform="translate(-66.181 -12.372)" style="fill:#fff"/>
                    <path data-name="패스 706" d="m42.983 21.4-.111-.048.1-.059a3.55 3.55 0 0 0 1.861-3.239c0-2.711-1.992-4.33-5.327-4.33h-7.28V30.1H39.7c3.777 0 5.86-1.651 5.86-4.649a4.123 4.123 0 0 0-2.577-4.051zm-1.276-3.029c0 1.426-.878 2.149-2.609 2.149h-3.834v-4.3H39.1c1.729 0 2.607.723 2.607 2.147zM39.574 27.6h-4.31v-4.585h4.31c1.865 0 2.85.793 2.85 2.294s-.986 2.291-2.85 2.291z" transform="translate(-32.23 -8.806)" style="fill:#fff"/>
                </g>
                <g data-name="그룹 1588">
                    <path data-name="패스 707" d="M131.52 13.719h2.17V30.1h-2.17z" transform="translate(-81.062 -8.805)" style="fill:#fff"/>
                    <g data-name="그룹 1587">
                        <path data-name="사각형 888" transform="translate(56.042 9.22)" style="fill:#fff" d="M0 0h2.171v12.077H0z"/>
                        <path data-name="사각형 889" style="fill:#fff" d="M0 0h2.338v2.339H0z" transform="translate(55.959 4.914)"/>
                    </g>
                    <path data-name="패스 708" d="M153.016 21.936h2.17v1.833a4.478 4.478 0 0 1 3.976-2.1c3.134 0 4.8 2.025 4.8 5.3v7.038h-2.17v-6.815c0-2.314-1.157-3.544-3.206-3.544a3.419 3.419 0 0 0-3.4 2.483v7.882h-2.17z" transform="translate(-91.634 -12.716)" style="fill:#fff"/>
                    <path data-name="패스 709" d="m184.3 23.63 5.927-5.518v-.086h-2.8l-5.282 4.915v-9.222h-2.17V30.1h2.17v-5.679l6.412 5.681h2.965v-.072z" transform="translate(-104.896 -8.805)" style="fill:#fff"/>
                </g>
            </g>
            <g data-name="그룹 1590">
                <path data-name="패스 710" d="M207.2 15.649a3.806 3.806 0 1 1-2.689 6.5l-1.364 1.365a5.733 5.733 0 1 0 4.053-9.788z" transform="translate(-116.288 -8.806)" style="fill:#fff"/>
                <path data-name="패스 711" d="M203.836 25.346a10.648 10.648 0 1 0-7.53-18.178l1.365 1.367a8.718 8.718 0 1 1 6.165 14.883z" transform="translate(-112.925 -4.05)" style="fill:#fff"/>
            </g>
        </g>
        <g data-name="그룹 1592">
            <path data-name="패스 712" d="M34.779 64.717h5.977v1.309h-4.4v2.9h3.828v1.309h-3.826v4.155h-1.579z" transform="translate(-34.778 -34.039)" style="fill:#fff"/>
            <path data-name="패스 713" d="M49.507 63.877h1.537v10.1h-1.537z" transform="translate(-42.021 -33.626)" style="fill:#fff"/>
            <path data-name="패스 714" d="M59.292 76.809a3.619 3.619 0 0 1-1.4-.263 3 3 0 0 1-1.081-.754 3.465 3.465 0 0 1-.7-1.188 4.627 4.627 0 0 1-.249-1.565 4.5 4.5 0 0 1 .263-1.587 3.564 3.564 0 0 1 .719-1.2 3.04 3.04 0 0 1 1.067-.747 3.39 3.39 0 0 1 1.323-.256 3.25 3.25 0 0 1 1.323.263 2.89 2.89 0 0 1 1.017.74 3.47 3.47 0 0 1 .655 1.131 4.186 4.186 0 0 1 .235 1.423c0 .1-.005.213-.014.327s-.024.224-.043.328H57.4a2.548 2.548 0 0 0 .6 1.494 1.8 1.8 0 0 0 1.4.555 2.235 2.235 0 0 0 1.11-.263 2.179 2.179 0 0 0 .783-.761l.982.811a3.735 3.735 0 0 1-1.252 1.117 3.612 3.612 0 0 1-1.731.395zm-.057-6.3a1.634 1.634 0 0 0-1.2.462 2.369 2.369 0 0 0-.612 1.359h3.5a2.112 2.112 0 0 0-.526-1.359 1.569 1.569 0 0 0-1.162-.466z" transform="translate(-45.147 -36.27)" style="fill:#fff"/>
            <path data-name="패스 715" d="M74.608 76.809a3.621 3.621 0 0 1-1.4-.263 3 3 0 0 1-1.081-.754 3.466 3.466 0 0 1-.7-1.188 4.627 4.627 0 0 1-.249-1.565 4.511 4.511 0 0 1 .263-1.587 3.573 3.573 0 0 1 .719-1.2 3.044 3.044 0 0 1 1.067-.747 3.393 3.393 0 0 1 1.323-.256 3.25 3.25 0 0 1 1.323.263 2.886 2.886 0 0 1 1.017.74 3.461 3.461 0 0 1 .655 1.131 4.186 4.186 0 0 1 .235 1.423c0 .1 0 .213-.014.327a3.194 3.194 0 0 1-.043.328h-5.007a2.548 2.548 0 0 0 .6 1.494 1.8 1.8 0 0 0 1.4.555 2.235 2.235 0 0 0 1.11-.263 2.179 2.179 0 0 0 .783-.761l.982.811a3.735 3.735 0 0 1-1.252 1.117 3.612 3.612 0 0 1-1.731.395zm-.057-6.3a1.634 1.634 0 0 0-1.2.462 2.373 2.373 0 0 0-.612 1.359h3.5a2.109 2.109 0 0 0-.526-1.359 1.567 1.567 0 0 0-1.162-.466z" transform="translate(-52.68 -36.27)" style="fill:#fff"/>
            <path data-name="패스 716" d="M89.212 75.083a2.347 2.347 0 0 1-1.743-.6 2.608 2.608 0 0 1-.591-1.892v-3.569h-1.223v-1.2h1.266v-1.85h1.494v1.85h1.594v1.2h-1.594v3.529a1.273 1.273 0 0 0 .3.96 1.371 1.371 0 0 0 .953.277h.341v1.224a5.248 5.248 0 0 1-.384.049 4 4 0 0 1-.413.022z" transform="translate(-59.8 -34.659)" style="fill:#fff"/>
        </g>
    </g>
</svg>
