<svg xmlns="http://www.w3.org/2000/svg" width="94.001" height="38.001" viewBox="0 0 94.001 38.001">
    <g data-name="그룹 1591">
        <g data-name="그룹 1589">
            <g data-name="그룹 1586">
                <path data-name="패스 703" d="M62.879 13.719h2.833v15.164h-2.833z" transform="translate(-48.462 -9.171)" style="fill:#fff"/>
                <path data-name="패스 704" d="M84.969 33.026h-2.833V31.42a4.093 4.093 0 0 1-3.636 1.873c-2.988 0-4.371-2.052-4.371-5v-6.751h2.833v6.444c0 1.828.869 2.786 2.541 2.786a2.693 2.693 0 0 0 2.63-2.007v-7.223h2.833z" transform="translate(-54.422 -13.314)" style="fill:#fff"/>
                <path data-name="패스 705" d="M101.263 27.014a5.671 5.671 0 0 1 5.777-6.042 5.291 5.291 0 0 1 5.529 5.619 11.379 11.379 0 0 1-.133 1.383h-8.318a3.057 3.057 0 0 0 3.346 2.585 4.108 4.108 0 0 0 3.254-1.693l1.563 1.849a6.331 6.331 0 0 1-4.95 2.3 5.789 5.789 0 0 1-6.068-6.001zm2.9-1.359h5.6a2.49 2.49 0 0 0-2.719-2.341 2.807 2.807 0 0 0-2.883 2.341z" transform="translate(-68.791 -13.012)" style="fill:#fff"/>
                <path data-name="패스 706" d="m42.183 20.825-.1-.044.1-.055a3.286 3.286 0 0 0 1.723-3c0-2.509-1.844-4.008-4.931-4.008h-6.744v15.166h6.909c3.5 0 5.424-1.528 5.424-4.3a3.816 3.816 0 0 0-2.381-3.759zM41 18.021c0 1.32-.812 1.989-2.415 1.989h-3.547v-3.976h3.549c1.603 0 2.413.666 2.413 1.987zm-1.973 8.549h-3.989v-4.246h3.989c1.726 0 2.638.734 2.638 2.123s-.912 2.123-2.638 2.123z" transform="translate(-32.23 -9.172)" style="fill:#fff"/>
            </g>
            <g data-name="그룹 1588">
                <path data-name="패스 707" d="M131.52 13.719h2.008v15.164h-2.008z" transform="translate(-84.817 -9.171)" style="fill:#fff"/>
                <g data-name="그룹 1587">
                    <path data-name="사각형 888" transform="translate(51.872 8.533)" style="fill:#fff" d="M0 0h2.009v11.178H0z"/>
                    <path data-name="사각형 889" style="fill:#fff" d="M0 0h2.164v2.165H0z" transform="translate(51.795 4.548)"/>
                </g>
                <path data-name="패스 708" d="M153.016 21.917h2.009v1.7a4.145 4.145 0 0 1 3.68-1.941c2.9 0 4.441 1.874 4.441 4.908v6.515h-2.008v-6.318c0-2.142-1.071-3.28-2.968-3.28a3.164 3.164 0 0 0-3.145 2.3v7.3h-2.009z" transform="translate(-96.202 -13.383)" style="fill:#fff"/>
                <path data-name="패스 709" d="m183.983 22.892 5.486-5.107v-.079h-2.592l-4.889 4.55v-8.537h-2.008v15.164h2.008v-5.259l5.935 5.259h2.744v-.067z" transform="translate(-110.483 -9.171)" style="fill:#fff"/>
            </g>
        </g>
        <g data-name="그룹 1590">
            <path data-name="패스 710" d="M206.9 15.506a3.522 3.522 0 1 1-2.489 6.012l-1.263 1.263a5.307 5.307 0 1 0 3.752-9.06z" transform="translate(-122.751 -9.172)" style="fill:#00a5cd"/>
            <path data-name="패스 711" d="M203.276 23.762a9.856 9.856 0 1 0-6.97-16.825L197.57 8.2a8.069 8.069 0 1 1 5.706 13.775z" transform="translate(-119.129 -4.05)" style="fill:#00a5cd"/>
        </g>
    </g>
    <g data-name="그룹 1592">
        <path data-name="패스 712" d="M34.779 64.717h5.532v1.212h-4.07v2.687h3.543v1.212h-3.543v3.846h-1.462z" transform="translate(-34.778 -36.322)" style="fill:#fff"/>
        <path data-name="패스 713" d="M49.507 63.877h1.423v9.351h-1.423z" transform="translate(-42.578 -35.877)" style="fill:#fff"/>
        <path data-name="패스 714" d="M59.037 76.246A3.35 3.35 0 0 1 57.74 76a2.78 2.78 0 0 1-1-.7 3.207 3.207 0 0 1-.645-1.1 4.283 4.283 0 0 1-.23-1.449 4.165 4.165 0 0 1 .244-1.468 3.3 3.3 0 0 1 .665-1.106 2.814 2.814 0 0 1 .988-.691 3.137 3.137 0 0 1 1.225-.237 3.008 3.008 0 0 1 1.225.244 2.675 2.675 0 0 1 .942.685 3.211 3.211 0 0 1 .606 1.047 3.874 3.874 0 0 1 .217 1.317c0 .1 0 .2-.013.3s-.022.207-.04.3h-4.639a2.359 2.359 0 0 0 .56 1.382 1.664 1.664 0 0 0 1.3.514 2.069 2.069 0 0 0 1.025-.238 2.017 2.017 0 0 0 .724-.7l.909.751a3.457 3.457 0 0 1-1.159 1.034 3.343 3.343 0 0 1-1.607.361zm-.053-5.834a1.512 1.512 0 0 0-1.106.428 2.193 2.193 0 0 0-.566 1.258h3.24a1.955 1.955 0 0 0-.487-1.258 1.452 1.452 0 0 0-1.081-.428z" transform="translate(-45.945 -38.724)" style="fill:#fff"/>
        <path data-name="패스 715" d="M74.353 76.246a3.351 3.351 0 0 1-1.3-.244 2.774 2.774 0 0 1-1-.7 3.208 3.208 0 0 1-.646-1.1 4.283 4.283 0 0 1-.23-1.449 4.175 4.175 0 0 1 .244-1.468 3.307 3.307 0 0 1 .665-1.106 2.818 2.818 0 0 1 .988-.691 3.141 3.141 0 0 1 1.225-.237 3.008 3.008 0 0 1 1.225.244 2.671 2.671 0 0 1 .942.685 3.2 3.2 0 0 1 .606 1.047 3.874 3.874 0 0 1 .217 1.317c0 .1 0 .2-.013.3a2.958 2.958 0 0 1-.04.3H72.6a2.359 2.359 0 0 0 .56 1.382 1.665 1.665 0 0 0 1.3.514 2.069 2.069 0 0 0 1.027-.244 2.017 2.017 0 0 0 .724-.7l.909.751a3.457 3.457 0 0 1-1.159 1.034 3.343 3.343 0 0 1-1.608.365zm-.053-5.834a1.512 1.512 0 0 0-1.106.428 2.2 2.2 0 0 0-.566 1.258h3.24a1.952 1.952 0 0 0-.487-1.258 1.451 1.451 0 0 0-1.081-.428z" transform="translate(-54.057 -38.724)" style="fill:#fff"/>
        <path data-name="패스 716" d="M88.948 74.406a2.172 2.172 0 0 1-1.613-.553 2.414 2.414 0 0 1-.547-1.752V68.8h-1.133v-1.111h1.172v-1.712h1.383v1.712h1.475V68.8H88.21v3.266a1.178 1.178 0 0 0 .277.889 1.269 1.269 0 0 0 .882.257h.316v1.128a5.767 5.767 0 0 1-.356.046 3.7 3.7 0 0 1-.381.02z" transform="translate(-61.723 -36.989)" style="fill:#fff"/>
    </g>
</svg>
