<svg xmlns="http://www.w3.org/2000/svg" width="48" height="48" viewBox="0 0 48 48">
    <path data-name="사각형 19094" style="fill:transparent" d="M0 0h48v48H0z"/>
    <g data-name="btn-gauge-selected-m">
        <path data-name="사각형 18337" transform="translate(14 14)" style="fill:transparent" d="M0 0h20v20H0z"/>
        <path data-name="패스 15377" d="M20 10A10.011 10.011 0 0 0 10 0h-.061a10 10 0 0 0 0 20H10a10.012 10.012 0 0 0 10-10m-6.667 6.042H6.667v-1.25h6.667zm-.993-6.9a2.508 2.508 0 0 1 .115.41 2.3 2.3 0 0 1 .037.365c0 .027.008.053.008.081A2.5 2.5 0 0 1 10 12.5a2.35 2.35 0 0 1-.423-.043 2.495 2.495 0 0 1-.349-.091 2.486 2.486 0 0 1-.473-.21L7.1 13.778l-.875-.891 1.634-1.607a2.481 2.481 0 0 1-.221-.483 2.724 2.724 0 0 1-.1-.37A2.342 2.342 0 0 1 7.5 10a2.488 2.488 0 0 1 2.408-2.491c.031 0 .06-.009.092-.009a2.387 2.387 0 0 1 .466.047 2.292 2.292 0 0 1 .311.089c.037.012.075.02.11.034a2.465 2.465 0 0 1 .729.438l2.957-2.735.848.918z" transform="translate(14 14)" style="fill:#fff"/>
        <path data-name="패스 15378" d="M12 10.5a1.5 1.5 0 1 0 1.5 1.5 1.5 1.5 0 0 0-1.5-1.5" transform="translate(12 12)" style="fill:#fff"/>
    </g>
</svg>
