<svg xmlns="http://www.w3.org/2000/svg" width="48" height="48" viewBox="0 0 48 48">
    <path data-name="사각형 18453" style="fill:transparent" d="M0 0h48v48H0z"/>
    <g data-name="btn-noti-selected-m">
        <path data-name="사각형 18213" transform="translate(14 14)" style="fill:transparent" d="M0 0h20v20H0z"/>
        <g data-name="사각형 6324">
            <path data-name="패스 12441" d="M7.5 0A7.632 7.632 0 0 1 15 7.758V16H0V7.758A7.632 7.632 0 0 1 7.5 0z" style="fill:#fff" transform="translate(16.5 13.999)"/>
            <path data-name="패스 12442" d="M7.5.75a6.884 6.884 0 0 1 6.75 7.011v7.489H.75V7.761A6.884 6.884 0 0 1 7.5.75z" transform="translate(16.5 13.999)" style="fill:#fff"/>
        </g>
        <g data-name="사각형 6325" style="stroke:#fff;fill:none">
            <path style="stroke:none" d="M0 0h19v1.654H0z" transform="translate(14.5 28.346)"/>
            <path style="fill:none" d="M.5.5h18v.654H.5z" transform="translate(14.5 28.346)"/>
        </g>
        <g data-name="사각형 6326">
            <path data-name="패스 12443" d="M0 0h7v1.5A3.5 3.5 0 0 1 3.5 5 3.5 3.5 0 0 1 0 1.5z" style="fill:#fff" transform="translate(20.5 28.346)"/>
            <path data-name="패스 12444" d="M.75.75h5.5v.785A2.731 2.731 0 0 1 3.5 4.25 2.732 2.732 0 0 1 .75 1.539z" style="fill:#fff" transform="translate(20.5 28.346)"/>
        </g>
    </g>
</svg>
