<svg xmlns="http://www.w3.org/2000/svg" width="28" height="28" viewBox="0 0 28 28">
    <path data-name="빼기 185" d="M7.963 10.238A51.845 51.845 0 0 1 1.74 9.93 1.914 1.914 0 0 1 .332 8.638 17.678 17.678 0 0 1 0 5.119 17.7 17.7 0 0 1 .332 1.6 1.918 1.918 0 0 1 1.74.305 51.988 51.988 0 0 1 7.963 0a51.912 51.912 0 0 1 6.219.305A1.923 1.923 0 0 1 15.591 1.6a17.493 17.493 0 0 1 .334 3.521 17.475 17.475 0 0 1-.334 3.519 1.915 1.915 0 0 1-1.41 1.292 51.769 51.769 0 0 1-6.218.306zM6.37 2.924v4.389l4.137-2.194L6.37 2.925z" transform="translate(5.981 9)" style="opacity:.4;fill:#fff"/>
</svg>
