<svg xmlns="http://www.w3.org/2000/svg" width="48" height="48" viewBox="0 0 48 48">
    <path data-name="사각형 18453" style="fill:transparent" d="M0 0h48v48H0z"/>
    <path data-name="사각형 18344" transform="translate(14.096 14)" style="fill:transparent" d="M0 0h19.905v20H0z"/>
    <g data-name="패스 15616" style="fill:none">
        <path d="M17.336 0 8.845 2.361H2.758v.971H0v4.763L2.758 9.9v1.9h2.09v4.6H9.03v-4.551l8.306 2.306a.444.444 0 0 0 .469-.416V.417A.445.445 0 0 0 17.336 0M1.254 7.421V4.58h1.5V8.4z" style="stroke:none" transform="translate(14.001 14.596)"/>
        <path d="M16.305 1.844 9.05 3.861H4.258v6.437h2.09v4.606H7.53V9.876l8.775 2.437V1.844M17.361 0c.234 0 .43.181.444.417V13.74a.444.444 0 0 1-.469.417L9.03 11.849v4.556l-4.182-.002v-4.605h-2.09V9.896L0 8.095V3.331h2.758v-.97h6.087L17.336 0h.025zM2.758 8.403V4.58H1.254v2.84l1.504.983z" style="fill:#cfd9de;stroke:none" transform="translate(14.001 14.596)"/>
    </g>
</svg>
