<svg xmlns="http://www.w3.org/2000/svg" width="48" height="48" viewBox="0 0 48 48">
    <path data-name="사각형 18450" style="fill:transparent" d="M0 0h48v48H0z"/>
    <g data-name="btn-analysis-m">
        <path data-name="사각형 18334" style="fill:transparent" d="M0 0h20v20H0z" transform="translate(14 14)"/>
        <g data-name="사각형 89" style="stroke:#cfd9de;stroke-width:1.5px;fill:none">
            <path style="stroke:none" d="M0 0h4.5v15H0z" transform="translate(21.75 15)"/>
            <path style="fill:none" d="M.75.75h3v13.5h-3z" transform="translate(21.75 15)"/>
        </g>
        <g data-name="패스 14321" style="fill:none">
            <path d="M0 0h4.5v6.6L2.7 8H0z" style="stroke:none" transform="translate(28.25 22)"/>
            <path d="M1.5 1.5v5h.687L3 5.87V1.5H1.5M0 0h4.5v6.605L2.7 8H0V0z" style="fill:#cfd9de;stroke:none" transform="translate(28.25 22)"/>
        </g>
        <g data-name="사각형 91" style="stroke:#cfd9de;stroke-width:1.5px;fill:none">
            <path style="stroke:none" d="M0 0h4.5v10H0z" transform="translate(15.25 20)"/>
            <path style="fill:none" d="M.75.75h3v8.5h-3z" transform="translate(15.25 20)"/>
        </g>
        <path data-name="선 205" transform="translate(15.5 33)" style="stroke:#cfd9de;stroke-width:1.5px;fill:none" d="M0 0h17"/>
    </g>
</svg>
