<svg xmlns="http://www.w3.org/2000/svg" width="72" height="29.001" viewBox="0 0 72 29.001">
    <g style="opacity:.6">
        <g data-name="그룹 1591">
            <g data-name="그룹 1589">
                <g data-name="그룹 1586">
                    <path data-name="패스 703" d="M62.879 13.719h2.159v11.557h-2.159z" transform="translate(-51.892 -10.253)" style="fill:#fff"/>
                    <path data-name="패스 704" d="M82.391 30.294h-2.159V29.07a3.12 3.12 0 0 1-2.769 1.43c-2.277 0-3.331-1.564-3.331-3.807v-5.151h2.159v4.911c0 1.393.662 2.124 1.936 2.124a2.052 2.052 0 0 0 2-1.529v-5.506h2.159z" transform="translate(-59.112 -15.272)" style="fill:#fff"/>
                    <path data-name="패스 705" d="M101.263 25.577a4.322 4.322 0 0 1 4.4-4.6 4.032 4.032 0 0 1 4.214 4.282 8.675 8.675 0 0 1-.1 1.054h-6.34a2.33 2.33 0 0 0 2.55 1.97 3.131 3.131 0 0 0 2.48-1.291l1.191 1.41a4.825 4.825 0 0 1-3.772 1.75 4.412 4.412 0 0 1-4.623-4.575zm2.209-1.036h4.266a1.9 1.9 0 0 0-2.072-1.784 2.14 2.14 0 0 0-2.194 1.784z" transform="translate(-76.517 -14.906)" style="fill:#fff"/>
                    <path data-name="패스 706" d="m39.815 19.135-.078-.034.074-.042a2.5 2.5 0 0 0 1.313-2.285c0-1.912-1.405-3.054-3.758-3.054h-5.135v11.557H37.5c2.665 0 4.134-1.164 4.134-3.279a2.908 2.908 0 0 0-1.819-2.863zM38.916 17c0 1.006-.619 1.516-1.84 1.516h-2.7v-3.03h2.7c1.224-.002 1.84.508 1.84 1.514zm-1.5 6.515H34.37v-3.238h3.04c1.315 0 2.011.56 2.011 1.618s-.695 1.618-2.01 1.618z" transform="translate(-32.231 -10.254)" style="fill:#fff"/>
                </g>
                <g data-name="그룹 1588">
                    <path data-name="패스 707" d="M131.52 13.719h1.531v11.557h-1.531z" transform="translate(-95.927 -10.253)" style="fill:#fff"/>
                    <g data-name="그룹 1587">
                        <path data-name="사각형 888" transform="translate(39.532 6.503)" style="fill:#fff" d="M0 0h1.531v8.519H0z"/>
                        <path data-name="사각형 889" style="fill:#fff" d="M0 0h1.649v1.65H0z" transform="translate(39.473 3.466)"/>
                    </g>
                    <path data-name="패스 708" d="M153.016 21.858h1.531v1.293a3.159 3.159 0 0 1 2.8-1.479c2.211 0 3.385 1.428 3.385 3.741v4.965h-1.531v-4.812c0-1.632-.816-2.5-2.262-2.5a2.411 2.411 0 0 0-2.4 1.752v5.56h-1.531z" transform="translate(-109.717 -15.355)" style="fill:#fff"/>
                    <path data-name="패스 709" d="m183.031 20.71 4.181-3.892v-.06h-1.975l-3.726 3.467v-6.506h-1.531v11.557h1.531v-4.008l4.523 4.008h2.091v-.051z" transform="translate(-127.016 -10.253)" style="fill:#fff"/>
                </g>
            </g>
            <g data-name="그룹 1590">
                <path data-name="패스 710" d="M206 15.081a2.684 2.684 0 1 1-1.9 4.582l-.963.963a4.044 4.044 0 1 0 2.859-6.9z" transform="translate(-141.876 -10.254)" style="fill:#fff"/>
                <path data-name="패스 711" d="M201.618 19.073a7.511 7.511 0 1 0-5.312-12.823l.963.964a6.15 6.15 0 1 1 4.349 10.5z" transform="translate(-137.489 -4.05)" style="fill:#fff"/>
            </g>
        </g>
        <g data-name="그룹 1592">
            <path data-name="패스 712" d="M34.779 64.717H39v.923h-3.1v2.048h2.7v.923h-2.7v2.931h-1.121z" transform="translate(-34.779 -43.077)" style="fill:#fff"/>
            <path data-name="패스 713" d="M49.507 63.877h1.084V71h-1.084z" transform="translate(-44.227 -42.538)" style="fill:#fff"/>
            <path data-name="패스 714" d="M58.282 74.583a2.553 2.553 0 0 1-.989-.186 2.119 2.119 0 0 1-.763-.532 2.444 2.444 0 0 1-.492-.838 3.264 3.264 0 0 1-.176-1.1 3.174 3.174 0 0 1 .186-1.119 2.514 2.514 0 0 1 .507-.843 2.144 2.144 0 0 1 .753-.527 2.391 2.391 0 0 1 .933-.181 2.293 2.293 0 0 1 .933.186 2.039 2.039 0 0 1 .718.522 2.447 2.447 0 0 1 .462.8 2.953 2.953 0 0 1 .166 1c0 .073 0 .151-.01.231s-.017.158-.03.231h-3.533a1.8 1.8 0 0 0 .427 1.054 1.268 1.268 0 0 0 .989.392 1.577 1.577 0 0 0 .783-.186 1.537 1.537 0 0 0 .552-.537l.693.572a2.635 2.635 0 0 1-.883.788 2.548 2.548 0 0 1-1.226.273zm-.04-4.447a1.152 1.152 0 0 0-.843.326 1.671 1.671 0 0 0-.432.959h2.469a1.49 1.49 0 0 0-.371-.959 1.107 1.107 0 0 0-.823-.326z" transform="translate(-48.305 -45.987)" style="fill:#fff"/>
            <path data-name="패스 715" d="M73.6 74.583a2.554 2.554 0 0 1-.989-.186 2.114 2.114 0 0 1-.762-.532 2.445 2.445 0 0 1-.492-.838 3.264 3.264 0 0 1-.176-1.1 3.182 3.182 0 0 1 .186-1.119 2.52 2.52 0 0 1 .507-.843 2.147 2.147 0 0 1 .753-.527 2.394 2.394 0 0 1 .933-.181 2.293 2.293 0 0 1 .933.186 2.036 2.036 0 0 1 .718.522 2.441 2.441 0 0 1 .462.8 2.952 2.952 0 0 1 .166 1c0 .073 0 .151-.01.231a2.254 2.254 0 0 1-.03.231h-3.536a1.8 1.8 0 0 0 .427 1.054 1.269 1.269 0 0 0 .989.392 1.577 1.577 0 0 0 .783-.186 1.537 1.537 0 0 0 .552-.537l.693.572a2.635 2.635 0 0 1-.883.788 2.548 2.548 0 0 1-1.224.273zm-.04-4.447a1.152 1.152 0 0 0-.843.326 1.674 1.674 0 0 0-.432.959h2.469a1.488 1.488 0 0 0-.371-.959 1.106 1.106 0 0 0-.825-.326z" transform="translate(-58.13 -45.987)" style="fill:#fff"/>
            <path data-name="패스 716" d="M88.164 72.4a1.656 1.656 0 0 1-1.23-.421 1.839 1.839 0 0 1-.417-1.335v-2.519h-.863v-.843h.893v-1.3H87.6v1.3h1.124v.843H87.6v2.489a.9.9 0 0 0 .211.678.967.967 0 0 0 .672.2h.241v.863c-.08.013-.171.025-.271.035a2.82 2.82 0 0 1-.289.01z" transform="translate(-67.417 -43.885)" style="fill:#fff"/>
        </g>
    </g>
</svg>
