<svg xmlns="http://www.w3.org/2000/svg" width="80" height="32.001" viewBox="0 0 80 32.001">
    <g data-name="그룹 1591">
        <g data-name="그룹 1589">
            <g data-name="그룹 1586">
                <path data-name="패스 703" d="M62.879 13.719h2.39v12.8h-2.39z" transform="translate(-50.713 -9.881)" style="fill:#fff"/>
                <path data-name="패스 704" d="M83.277 31.233h-2.391v-1.355a3.454 3.454 0 0 1-3.066 1.581c-2.522 0-3.689-1.731-3.689-4.216v-5.7h2.39v5.437c0 1.543.733 2.352 2.144 2.352a2.273 2.273 0 0 0 2.22-1.693v-6.1h2.391z" transform="translate(-57.5 -14.599)" style="fill:#fff"/>
                <path data-name="패스 705" d="M101.263 26.071a4.786 4.786 0 0 1 4.875-5.1 4.465 4.465 0 0 1 4.666 4.742 9.6 9.6 0 0 1-.112 1.167h-7.02a2.58 2.58 0 0 0 2.823 2.182 3.467 3.467 0 0 0 2.746-1.429l1.319 1.561a5.343 5.343 0 0 1-4.177 1.938 4.886 4.886 0 0 1-5.12-5.061zm2.446-1.147h4.723a2.1 2.1 0 0 0-2.294-1.976 2.369 2.369 0 0 0-2.429 1.976z" transform="translate(-73.861 -14.255)" style="fill:#fff"/>
                <path data-name="패스 706" d="m40.629 19.716-.087-.037.082-.046a2.773 2.773 0 0 0 1.454-2.53c0-2.117-1.556-3.382-4.161-3.382h-5.686v12.8h5.83c2.951 0 4.577-1.289 4.577-3.631a3.22 3.22 0 0 0-2.009-3.174zm-1-2.366c0 1.114-.686 1.678-2.038 1.678H34.6v-3.355h2.995c1.352 0 2.038.565 2.038 1.677zm-1.666 7.214H34.6v-3.583h3.367c1.456 0 2.226.62 2.226 1.792s-.77 1.791-2.227 1.791z" transform="translate(-32.231 -9.882)" style="fill:#fff"/>
            </g>
            <g data-name="그룹 1588">
                <path data-name="패스 707" d="M131.52 13.719h1.695v12.8h-1.695z" transform="translate(-92.107 -9.881)" style="fill:#fff"/>
                <g data-name="그룹 1587">
                    <path data-name="사각형 888" transform="translate(43.775 7.201)" style="fill:#fff" d="M0 0h1.696v9.433H0z"/>
                    <path data-name="사각형 889" style="fill:#fff" d="M0 0h1.826v1.827H0z" transform="translate(43.71 3.838)"/>
                </g>
                <path data-name="패스 708" d="M153.016 21.878h1.7v1.432a3.5 3.5 0 0 1 3.106-1.638c2.448 0 3.748 1.581 3.748 4.142v5.5h-1.7v-5.33c0-1.807-.9-2.768-2.5-2.768a2.67 2.67 0 0 0-2.654 1.939v6.157h-1.7z" transform="translate(-105.07 -14.677)" style="fill:#fff"/>
                <path data-name="패스 709" d="m183.358 21.46 4.63-4.31v-.067H185.8l-4.126 3.839v-7.2h-1.695v12.8h1.695v-4.444l5.009 4.438H189v-.057z" transform="translate(-121.331 -9.881)" style="fill:#fff"/>
            </g>
        </g>
        <g data-name="그룹 1590">
            <path data-name="패스 710" d="M206.31 15.227a2.973 2.973 0 1 1-2.1 5.073l-1.066 1.066a4.478 4.478 0 1 0 3.166-7.646z" transform="translate(-135.301 -9.882)" style="fill:#00a5cd"/>
            <path data-name="패스 711" d="M202.188 20.685a8.317 8.317 0 1 0-5.882-14.2l1.067 1.067a6.81 6.81 0 1 1 4.815 11.625z" transform="translate(-131.177 -4.05)" style="fill:#00a5cd"/>
        </g>
    </g>
    <g data-name="그룹 1592">
        <path data-name="패스 712" d="M34.779 64.717h4.669v1.023h-3.435v2.267H39v1.023h-2.99v3.245h-1.231z" transform="translate(-34.779 -40.754)" style="fill:#fff"/>
        <path data-name="패스 713" d="M49.507 63.877h1.2v7.891h-1.2z" transform="translate(-43.661 -40.247)" style="fill:#fff"/>
        <path data-name="패스 714" d="M58.542 75.155a2.827 2.827 0 0 1-1.095-.206 2.346 2.346 0 0 1-.845-.589 2.706 2.706 0 0 1-.545-.928 3.614 3.614 0 0 1-.195-1.223 3.515 3.515 0 0 1 .206-1.239 2.784 2.784 0 0 1 .561-.934 2.374 2.374 0 0 1 .834-.584 2.648 2.648 0 0 1 1.034-.2 2.539 2.539 0 0 1 1.034.206 2.257 2.257 0 0 1 .795.578 2.71 2.71 0 0 1 .511.884 3.27 3.27 0 0 1 .183 1.111c0 .081 0 .167-.011.255s-.019.175-.033.256h-3.913a1.991 1.991 0 0 0 .472 1.167 1.4 1.4 0 0 0 1.095.434 1.746 1.746 0 0 0 .867-.206 1.7 1.7 0 0 0 .611-.595l.767.634a2.918 2.918 0 0 1-.978.872 2.821 2.821 0 0 1-1.355.307zm-.042-4.924a1.276 1.276 0 0 0-.934.361 1.851 1.851 0 0 0-.478 1.061h2.732a1.65 1.65 0 0 0-.411-1.061 1.226 1.226 0 0 0-.909-.361z" transform="translate(-47.494 -43.489)" style="fill:#fff"/>
        <path data-name="패스 715" d="M73.858 75.155a2.828 2.828 0 0 1-1.095-.206 2.341 2.341 0 0 1-.844-.589 2.707 2.707 0 0 1-.545-.928 3.614 3.614 0 0 1-.195-1.223 3.524 3.524 0 0 1 .206-1.239 2.791 2.791 0 0 1 .561-.934 2.378 2.378 0 0 1 .834-.584 2.651 2.651 0 0 1 1.034-.2 2.539 2.539 0 0 1 1.034.206 2.254 2.254 0 0 1 .795.578 2.7 2.7 0 0 1 .511.884 3.269 3.269 0 0 1 .183 1.111c0 .081 0 .167-.011.255a2.5 2.5 0 0 1-.033.256h-3.914a1.991 1.991 0 0 0 .472 1.167 1.4 1.4 0 0 0 1.095.434 1.746 1.746 0 0 0 .867-.206 1.7 1.7 0 0 0 .611-.595l.767.634a2.918 2.918 0 0 1-.978.872 2.821 2.821 0 0 1-1.355.307zm-.044-4.924a1.276 1.276 0 0 0-.934.361 1.853 1.853 0 0 0-.478 1.061h2.734a1.648 1.648 0 0 0-.411-1.061 1.224 1.224 0 0 0-.912-.361z" transform="translate(-56.73 -43.489)" style="fill:#fff"/>
        <path data-name="패스 716" d="M88.434 73.09a1.833 1.833 0 0 1-1.362-.466 2.037 2.037 0 0 1-.461-1.478v-2.79h-.956v-.934h.989v-1.445h1.167v1.445h1.245v.934h-1.245v2.756a.994.994 0 0 0 .233.75 1.071 1.071 0 0 0 .745.217h.267v.956a3.936 3.936 0 0 1-.3.038 3.122 3.122 0 0 1-.322.017z" transform="translate(-65.46 -41.513)" style="fill:#fff"/>
    </g>
</svg>
