<svg xmlns="http://www.w3.org/2000/svg" width="100" height="80" viewBox="0 0 100 80">
    <path data-name="패스 16045" d="M0-2 8 .2v17.6L0 20z" transform="translate(75 22)" style="fill:#455a64"/>
    <path data-name="패스 16044" d="M0 0h9.17l5 26H5z" transform="translate(31 49)" style="fill:#455a64"/>
    <path data-name="합치기 357" d="M8727 5125h-13v-7l-10-7.541V5097h10v-6h13l36-10v52zm-17-16.593 4 3.591v-10h-4z" transform="translate(-8687.002 -5076)" style="fill:#71868f"/>
    <path data-name="사각형 19849" transform="translate(36 15)" style="fill:#455a64" d="M0 0h4v34H0z"/>
    <g data-name="그룹 16962" transform="translate(-934 -546.775)">
        <circle data-name="타원 2400" cx="14" cy="14" r="14" transform="translate(996 593.775)" style="fill:#455a64"/>
        <path data-name="사각형 19257" transform="rotate(45 -218.623 1525.931)" style="fill:#71868f" d="M0 0h2v16H0z"/>
        <path data-name="사각형 19258" transform="rotate(135 381.265 516.92)" style="fill:#71868f" d="M0 0h2v16H0z"/>
    </g>
</svg>
