<svg xmlns="http://www.w3.org/2000/svg" width="80" height="60" viewBox="0 0 80 60">
    <path data-name="사각형 19261" style="fill:none" d="M0 0h80v60H0z"/>
    <path data-name="빼기 74" d="M-3159.994 23959.012H-3190a4.007 4.007 0 0 1-4-4.006V23916a4 4 0 0 1 4-4h21.863l12.146 11.893v31.111a4.007 4.007 0 0 1-4.003 4.008z" transform="translate(3215.003 -23907)" style="fill:#71868f"/>
    <path data-name="사각형 19254" d="M0 0h15a2 2 0 0 1 2 2 2 2 0 0 1-2 2H0V0z" transform="rotate(-90 34 4)" style="fill:#455a64"/>
    <path data-name="사각형 19334" d="M0 0h7a2 2 0 0 1 2 2 2 2 0 0 1-2 2H0V0z" transform="rotate(-90 38 0)" style="fill:#455a64"/>
    <path data-name="사각형 19335" d="M0 0h10a2 2 0 0 1 2 2 2 2 0 0 1-2 2H0V0z" transform="rotate(-90 42 -4)" style="fill:#455a64"/>
    <g data-name="그룹 16962" transform="translate(-946 -553.775)">
        <circle data-name="타원 2400" cx="10" cy="10" r="10" transform="translate(996 590.775)" style="fill:#455a64"/>
        <circle data-name="타원 2447" cx="1.5" cy="1.5" r="1.5" transform="translate(1004.5 599.275)" style="fill:#71868f"/>
        <circle data-name="타원 2448" cx="1.5" cy="1.5" r="1.5" transform="translate(1009.167 599.275)" style="fill:#71868f"/>
        <circle data-name="타원 2449" cx="1.5" cy="1.5" r="1.5" transform="translate(999.833 599.275)" style="fill:#71868f"/>
    </g>
    <path data-name="빼기 75" d="M-3181.143 23924H-3189a4 4 0 0 1-4-4v-7.861l11.857 11.857z" transform="translate(3240 -23907)" style="fill:#455a64"/>
</svg>
