<svg xmlns="http://www.w3.org/2000/svg" width="80" height="60" viewBox="0 0 80 60">
    <path data-name="사각형 19261" style="fill:none" d="M0 0h80v60H0z"/>
    <path data-name="합치기 314" d="M-3721-17746v-5h-12v5h-5v-5h-4.067l-4.929-4.93v-20.07h-3v-6h3v-5a4.007 4.007 0 0 1 4-4.006h32a4.007 4.007 0 0 1 4 4.006v5h3v6h-3v20.07l-4.929 4.93H-3716v5zm0-17a3 3 0 0 0 3 3 3 3 0 0 0 3-3 3.007 3.007 0 0 0-3-3 3 3 0 0 0-3 3zm-18 0a3 3 0 0 0 3 3 3 3 0 0 0 3-3 3.007 3.007 0 0 0-3-3 3 3 0 0 0-3 3zm-3-7h30v-12h-30z" transform="translate(3766.998 17799)" style="fill:#71868f"/>
    <g data-name="그룹 16961" transform="translate(-950 -553.775)">
        <circle data-name="타원 2407" cx="10" cy="10" r="10" transform="translate(1005 590.775)" style="fill:#455a64"/>
        <path data-name="사각형 19284" transform="rotate(45 -210.083 1527.696)" style="fill:#71868f" d="M0 0h1.5v12H0z"/>
        <path data-name="사각형 19285" transform="rotate(135 384.693 513.445)" style="fill:#71868f" d="M0 0h1.5v12H0z"/>
    </g>
</svg>
