<svg xmlns="http://www.w3.org/2000/svg" width="80" height="60" viewBox="0 0 80 60">
    <path data-name="사각형 21902" style="fill:none" d="M0 0h80v60H0z"/>
    <g data-name="그룹 19701">
        <path data-name="패스 16394" d="M18-9C2.768-4.074 2.561-4.066 2.561-4.066 1.256-3.618 0-2.812 0-1.259V29h18z" transform="translate(11 26)" style="fill:#455a64"/>
        <path data-name="패스 16404" d="M2.857-5h29.286A2.865 2.865 0 0 1 35-2.127V46H0V-2.127A2.865 2.865 0 0 1 2.857-5z" transform="translate(26 9)" style="fill:#71868f"/>
        <path data-name="사각형 21176" transform="translate(33 23)" style="fill:#455a64" d="M0 0h21v3H0z"/>
        <path data-name="사각형 21181" transform="translate(16 27)" style="fill:#203039" d="M0 0h5v5H0z"/>
        <path data-name="사각형 21183" transform="translate(33 15)" style="fill:#455a64" d="M0 0h21v3H0z"/>
        <path data-name="사각형 21182" transform="translate(16 35)" style="fill:#203039" d="M0 0h5v5H0z"/>
        <path data-name="사각형 21177" transform="translate(39 42)" style="fill:#203039" d="M0 0h9v13H0z"/>
    </g>
    <path data-name="패스 16457" d="M0 6h10.65v17.763l-5.261-2.944L0 23.763z" transform="translate(56.122 34.236)" style="fill:#37474f"/>
    <g data-name="그룹 19702">
        <path data-name="다각형 92" d="M13.616.323a1 1 0 0 1 1.23.4l1.218 1.962a1 1 0 0 0 .639.45l2.325.5a1 1 0 0 1 .785 1.074L19.6 6.9a1 1 0 0 0 .259.774l1.519 1.652a1 1 0 0 1 0 1.354l-1.519 1.652a1 1 0 0 0-.259.774l.213 2.191a1 1 0 0 1-.785 1.074l-2.325.5a1 1 0 0 0-.639.45l-1.218 1.959a1 1 0 0 1-1.23.4l-2.235-.92a1 1 0 0 0-.762 0l-2.235.92a1 1 0 0 1-1.23-.4l-1.218-1.962a1 1 0 0 0-.639-.45l-2.325-.5a1 1 0 0 1-.785-1.074L2.4 13.1a1 1 0 0 0-.259-.774L.622 10.677a1 1 0 0 1 0-1.354l1.519-1.652A1 1 0 0 0 2.4 6.9l-.213-2.193a1 1 0 0 1 .785-1.074l2.325-.5a1 1 0 0 0 .639-.45L7.154.72a1 1 0 0 1 1.23-.4l2.235.92a1 1 0 0 0 .762 0z" transform="translate(50 30.001)" style="fill:#455a64"/>
        <path data-name="패스 16364" d="m4.133 7.958 3.09 3.231L12.659 5.5" transform="translate(52.765 31.537)" style="stroke:#71868f;stroke-linejoin:bevel;stroke-width:2px;fill:none"/>
    </g>
</svg>
