<svg xmlns="http://www.w3.org/2000/svg" width="80" height="60" viewBox="0 0 80 60">
    <g data-name="그룹 19441">
        <g data-name="그룹 19015">
            <g data-name="그룹 18780">
                <path data-name="패스 16317" d="M0 6.462V0h28.572v6.462" transform="translate(25.286 40.564)" style="stroke-width:1.5px;stroke:#37474f;fill:none"/>
                <path data-name="사각형 20934" transform="translate(38.922 31.973)" style="fill:#37474f" d="M0 0h1.5v12.989H0z"/>
            </g>
            <path data-name="패스 16336" d="M0 0h11.487v6.19l-2.974 3.1H0z" transform="rotate(-90 38.5 17.5)" style="fill:#455a64"/>
            <path data-name="패스 16401" d="M0 0h11.487v6.19l-2.974 3.1H0z" transform="rotate(-90 45.643 10.357)" style="fill:#455a64"/>
            <path data-name="패스 16402" d="M0 0h11.487v6.19l-2.974 3.1H0z" transform="rotate(-90 52.786 3.214)" style="fill:#455a64"/>
        </g>
        <path data-name="합치기 412" d="M13 34.462A13.13 13.13 0 0 1 0 21.209 13.177 13.177 0 0 1 11.153 8.09a12.822 12.822 0 0 1 23.779-.133H37a13.13 13.13 0 0 1 13 13.252 13.13 13.13 0 0 1-13 13.253z" transform="translate(15)" style="fill:#71868f"/>
        <path data-name="패스 16406" d="M-12.471-3.849a5.274 5.274 0 0 1-2.018-.375 4.76 4.76 0 0 1-1.581-1.04 4.694 4.694 0 0 1-1.037-1.593 5.368 5.368 0 0 1-.372-2.017 5.314 5.314 0 0 1 .372-2.01 4.788 4.788 0 0 1 1.037-1.593 4.706 4.706 0 0 1 1.581-1.048 5.274 5.274 0 0 1 2.018-.375 5.307 5.307 0 0 1 2.64.616 4.835 4.835 0 0 1 1.753 1.663l-1.646 1.232a3.744 3.744 0 0 0-1.076-1.076 2.975 2.975 0 0 0-1.631-.4 2.8 2.8 0 0 0-1.152.227 2.434 2.434 0 0 0-.859.63 2.912 2.912 0 0 0-.544.949 3.514 3.514 0 0 0-.193 1.182 3.514 3.514 0 0 0 .193 1.182 2.912 2.912 0 0 0 .544.948 2.434 2.434 0 0 0 .859.63 2.8 2.8 0 0 0 1.152.227 2.975 2.975 0 0 0 1.631-.4 3.744 3.744 0 0 0 1.076-1.07l1.646 1.232a4.835 4.835 0 0 1-1.753 1.663 5.307 5.307 0 0 1-2.64.616zm10.046 0a5.274 5.274 0 0 1-2.018-.375 4.76 4.76 0 0 1-1.582-1.04 4.694 4.694 0 0 1-1.037-1.593 5.368 5.368 0 0 1-.372-2.017 5.314 5.314 0 0 1 .372-2.01 4.788 4.788 0 0 1 1.037-1.593 4.706 4.706 0 0 1 1.581-1.048 5.274 5.274 0 0 1 2.018-.375 5.29 5.29 0 0 1 2.011.375 4.69 4.69 0 0 1 1.588 1.048 4.788 4.788 0 0 1 1.037 1.593 5.314 5.314 0 0 1 .372 2.01 5.368 5.368 0 0 1-.372 2.017 4.694 4.694 0 0 1-1.037 1.593 4.743 4.743 0 0 1-1.588 1.04 5.29 5.29 0 0 1-2.011.375zm0-2.039a2.751 2.751 0 0 0 1.145-.227 2.381 2.381 0 0 0 .844-.63 2.882 2.882 0 0 0 .529-.948 3.637 3.637 0 0 0 .186-1.181 3.637 3.637 0 0 0-.186-1.182A2.882 2.882 0 0 0-.436-11a2.381 2.381 0 0 0-.844-.63 2.751 2.751 0 0 0-1.145-.227 2.751 2.751 0 0 0-1.145.227 2.381 2.381 0 0 0-.844.63 2.882 2.882 0 0 0-.529.949 3.637 3.637 0 0 0-.187 1.177 3.637 3.637 0 0 0 .186 1.182 2.882 2.882 0 0 0 .529.948 2.381 2.381 0 0 0 .844.63 2.751 2.751 0 0 0 1.145.227zm5.766-3.524a2.707 2.707 0 0 1 .687-.772q.429-.333.837-.609a8.25 8.25 0 0 0 .708-.531.726.726 0 0 0 .3-.552.506.506 0 0 0-.157-.4.641.641 0 0 0-.444-.142.66.66 0 0 0-.5.212 1.493 1.493 0 0 0-.315.538L3.3-12.343a2.906 2.906 0 0 1 .236-.517 1.789 1.789 0 0 1 .4-.474 2.11 2.11 0 0 1 .587-.347 2.09 2.09 0 0 1 .78-.134 2.515 2.515 0 0 1 .916.156 2.063 2.063 0 0 1 .673.411 1.643 1.643 0 0 1 .408.595 1.925 1.925 0 0 1 .136.722 1.67 1.67 0 0 1-.245.931 2.462 2.462 0 0 1-.58.63 4.1 4.1 0 0 1-.687.425 3.158 3.158 0 0 0-.551.326H7.52v1.339H3.341z" transform="translate(44.98 29.695)" style="fill:#37474f"/>
    </g>
    <path data-name="사각형 21611" style="fill:none" d="M0 0h80v60H0z"/>
    <g data-name="그룹 19445">
        <path data-name="다각형 92" d="M9.639.378A1 1 0 0 1 10.922.8l.709 1.256a1 1 0 0 0 .64.482l1.359.322a1 1 0 0 1 .77 1.058l-.137 1.544a1 1 0 0 0 .229.729l.976 1.167a1 1 0 0 1 0 1.283l-.976 1.167a1 1 0 0 0-.229.729l.137 1.544a1 1 0 0 1-.766 1.061l-1.359.322a1 1 0 0 0-.64.482l-.713 1.254a1 1 0 0 1-1.284.419l-1.226-.555a1 1 0 0 0-.825 0l-1.226.555a1 1 0 0 1-1.283-.419l-.709-1.256a1 1 0 0 0-.64-.482l-1.359-.318a1 1 0 0 1-.77-1.062l.137-1.544a1 1 0 0 0-.229-.729L.536 8.641a1 1 0 0 1 0-1.283l.976-1.167a1 1 0 0 0 .229-.729L1.6 3.918a1 1 0 0 1 .77-1.062l1.359-.322a1 1 0 0 0 .64-.482L5.078.8A1 1 0 0 1 6.362.378l1.225.555a1 1 0 0 0 .825 0z" transform="translate(54 22.999)" style="fill:#455a64"/>
        <path data-name="패스 16364" d="m4.133 7.191 2.125 2.223L10 5.5" transform="translate(55.29 23.483)" style="stroke:#71868f;stroke-linejoin:bevel;stroke-width:1.5px;fill:none"/>
    </g>
</svg>
