<svg xmlns="http://www.w3.org/2000/svg" width="92" height="72" viewBox="0 0 92 72">
    <g data-name="합치기 511" style="fill:#fff">
        <path d="M-7777 2923h-46a21.923 21.923 0 0 1-15.556-6.444A21.922 21.922 0 0 1-7845 2901a21.922 21.922 0 0 1 6.444-15.556A21.923 21.923 0 0 1-7823 2879h46a21.923 21.923 0 0 1 15.556 6.444A21.922 21.922 0 0 1-7755 2901a21.922 21.922 0 0 1-6.444 15.556A21.923 21.923 0 0 1-7777 2923z" style="stroke:none" transform="translate(7846 -2878)"/>
        <path d="M-7823 2880a20.933 20.933 0 0 0-14.85 6.15A20.936 20.936 0 0 0-7844 2901a20.936 20.936 0 0 0 6.15 14.85A20.933 20.933 0 0 0-7823 2922h46a20.933 20.933 0 0 0 14.85-6.15A20.936 20.936 0 0 0-7756 2901a20.936 20.936 0 0 0-6.15-14.85A20.933 20.933 0 0 0-7777 2880h-46m0-2h46c12.703 0 23 10.297 23 23s-10.297 23-23 23h-46c-12.703 0-23-10.297-23-23s10.297-23 23-23z" style="fill:#3572db;stroke:none" transform="translate(7846 -2878)"/>
    </g>
    <g data-name="그룹 23357" transform="translate(-541 -564.464)">
        <rect data-name="사각형 21988" width="36" height="36" rx="18" transform="translate(546 569.464)" style="fill:#4f8cf6"/>
        <g data-name="그룹 23394" transform="translate(557 581.464)">
            <path data-name="사각형 22118" transform="translate(5 -1.5)" style="fill:#fff" d="M0 0h12v7H0z"/>
            <path data-name="빼기 122" d="M13.042 10H8.413a2.728 2.728 0 0 0-5.371 0H0V3a3 3 0 0 1 3-3h4v5.454h13V10h-1.586a2.728 2.728 0 0 0-5.371 0z" transform="translate(-3 1)" style="fill:#fff"/>
            <circle data-name="타원 2885" cx="2" cy="2" r="2" transform="translate(.75 9.5)" style="fill:#fff"/>
            <circle data-name="타원 2886" cx="2" cy="2" r="2" transform="translate(10.75 9.5)" style="fill:#fff"/>
        </g>
    </g>
    <g data-name="그룹 23365" transform="translate(-378.5 -424)">
        <path data-name="사각형 22155" transform="translate(424.25 470)" style="fill:#3572db" d="M0 0h1.5v18H0z"/>
        <circle data-name="타원 2902" cx="7.5" cy="7.5" r="7.5" transform="translate(417.5 481)" style="opacity:.3;fill:#3572db"/>
        <circle data-name="타원 2904" cx="2.5" cy="2.5" r="2.5" transform="translate(422.5 486)" style="fill:#3572db"/>
    </g>
</svg>
