<svg xmlns="http://www.w3.org/2000/svg" width="78" height="49" viewBox="0 0 78 49">
    <g data-name="합치기 511" style="fill:#b0bec5">
        <path d="M-7786 2916.25h-42c-4.607 0-8.94-1.794-12.198-5.052a17.138 17.138 0 0 1-5.052-12.198c0-4.608 1.794-8.94 5.052-12.198a17.137 17.137 0 0 1 12.198-5.052h42c4.607 0 8.94 1.794 12.198 5.052a17.138 17.138 0 0 1 5.052 12.198c0 4.608-1.794 8.94-5.052 12.198a17.137 17.137 0 0 1-12.198 5.052z" style="stroke:none" transform="translate(7846 -2881)"/>
        <path d="M-7828 2882.5c-4.407 0-8.55 1.716-11.667 4.833A16.391 16.391 0 0 0-7844.5 2899c0 4.407 1.716 8.55 4.833 11.667A16.391 16.391 0 0 0-7828 2915.5h42c4.407 0 8.55-1.716 11.667-4.833A16.391 16.391 0 0 0-7769.5 2899c0-4.407-1.716-8.55-4.833-11.667A16.391 16.391 0 0 0-7786 2882.5h-42m0-1.5h42c9.94 0 18 8.059 18 18s-8.06 18-18 18h-42c-9.94 0-18-8.059-18-18s8.06-18 18-18z" style="fill:#90a4ae;stroke:none" transform="translate(7846 -2881)"/>
    </g>
    <g data-name="그룹 23331" transform="translate(-386 -434)">
        <path data-name="사각형 22155" transform="translate(424.25 470)" style="fill:#90a4ae" d="M0 0h1.5v10H0z"/>
        <circle data-name="타원 2902" cx="2.5" cy="2.5" r="2.5" transform="translate(422.5 478)" style="fill:#90a4ae"/>
    </g>
    <g data-name="그룹 23357" transform="translate(-544 -567.464)">
        <rect data-name="사각형 21988" width="28" height="28" rx="14" transform="translate(548 571.464)" style="fill:#fff"/>
        <g data-name="그룹 23373" transform="translate(553.544 577.172)">
            <path data-name="빼기 111" d="M9.305 10H5.694a2.251 2.251 0 0 0-4.388 0H0V2a2 2 0 0 1 2-2h14v10h-2.306a2.251 2.251 0 0 0-4.388 0zM2 1.428a.693.693 0 0 0-.667.715V6.07H4l1.333-4.642zm5 0-.667 2.143h8.22V1.428H7z" transform="translate(.456 2.292)" style="fill:#b0bec5"/>
            <circle data-name="타원 2795" cx="1.5" cy="1.5" r="1.5" transform="translate(2.455 11.292)" style="fill:#b0bec5"/>
            <circle data-name="타원 2871" cx="1.5" cy="1.5" r="1.5" transform="translate(10.475 11.292)" style="fill:#b0bec5"/>
        </g>
    </g>
</svg>
