<svg xmlns="http://www.w3.org/2000/svg" width="100" height="80" viewBox="0 0 100 80">
    <g data-name="그룹 19008">
        <path data-name="사각형 20946" style="fill:transparent" d="M0 0h100v80H0z"/>
        <g data-name="그룹 18785">
            <g data-name="그룹 19015">
                <g data-name="그룹 18780">
                    <path data-name="패스 16317" d="M10196-22493.77v-9h40v9" transform="translate(-10166 22559.269)" style="stroke:#37474f;fill:none;stroke-width:2px"/>
                    <path data-name="사각형 20934" transform="translate(49 44)" style="fill:#37474f" d="M0 0h2v19H0z"/>
                </g>
                <path data-name="패스 16336" d="M0 3h16v8.667L11.857 16H0z" transform="rotate(-90 49.5 28.5)" style="fill:#455a64"/>
                <path data-name="패스 16401" d="M0 3h16v8.667L11.857 16H0z" transform="rotate(-90 59.5 18.5)" style="fill:#455a64"/>
                <path data-name="패스 16402" d="M0 3h16v8.667L11.857 16H0z" transform="rotate(-90 69.5 8.5)" style="fill:#455a64"/>
            </g>
            <path data-name="합치기 412" d="M16.206 49a18.479 18.479 0 0 1-2.592-36.732 17.985 17.985 0 0 1 33.291-.186h2.889a18.461 18.461 0 0 1 0 36.918z" transform="translate(17 -1)" style="fill:#71868f"/>
            <path data-name="패스 16406" d="M-10.468.1a7.417 7.417 0 0 1-2.825-.523 6.667 6.667 0 0 1-2.214-1.449 6.535 6.535 0 0 1-1.452-2.218 7.443 7.443 0 0 1-.521-2.81 7.368 7.368 0 0 1 .521-2.8 6.666 6.666 0 0 1 1.452-2.218 6.592 6.592 0 0 1 2.214-1.459 7.417 7.417 0 0 1 2.825-.523 7.46 7.46 0 0 1 3.7.858 6.755 6.755 0 0 1 2.454 2.317l-2.3 1.715a5.228 5.228 0 0 0-1.5-1.5 4.182 4.182 0 0 0-2.284-.552 3.938 3.938 0 0 0-1.613.315 3.407 3.407 0 0 0-1.2.877 4.052 4.052 0 0 0-.761 1.321 4.872 4.872 0 0 0-.27 1.646 4.872 4.872 0 0 0 .27 1.646 4.052 4.052 0 0 0 .761 1.321 3.407 3.407 0 0 0 1.2.877 3.938 3.938 0 0 0 1.613.315 4.182 4.182 0 0 0 2.284-.552 5.228 5.228 0 0 0 1.5-1.5l2.3 1.715A6.755 6.755 0 0 1-6.772-.758 7.46 7.46 0 0 1-10.468.1zM3.6.1A7.417 7.417 0 0 1 .771-.423a6.667 6.667 0 0 1-2.214-1.449A6.535 6.535 0 0 1-2.895-4.09a7.443 7.443 0 0 1-.521-2.81 7.368 7.368 0 0 1 .521-2.8 6.666 6.666 0 0 1 1.452-2.218 6.592 6.592 0 0 1 2.214-1.459A7.417 7.417 0 0 1 3.6-13.9a7.439 7.439 0 0 1 2.815.523 6.569 6.569 0 0 1 2.224 1.459A6.666 6.666 0 0 1 10.087-9.7a7.368 7.368 0 0 1 .521 2.8 7.443 7.443 0 0 1-.521 2.81 6.535 6.535 0 0 1-1.452 2.218A6.643 6.643 0 0 1 6.411-.423 7.439 7.439 0 0 1 3.6.1zm0-2.839a3.868 3.868 0 0 0 1.6-.315 3.332 3.332 0 0 0 1.182-.877 4.009 4.009 0 0 0 .741-1.321 5.042 5.042 0 0 0 .26-1.648 5.042 5.042 0 0 0-.26-1.646 4.009 4.009 0 0 0-.741-1.321 3.332 3.332 0 0 0-1.182-.878 3.868 3.868 0 0 0-1.6-.315 3.868 3.868 0 0 0-1.6.315 3.332 3.332 0 0 0-1.182.877A4.009 4.009 0 0 0 .07-8.546 5.042 5.042 0 0 0-.19-6.9a5.042 5.042 0 0 0 .26 1.646 4.009 4.009 0 0 0 .741 1.322 3.332 3.332 0 0 0 1.182.877 3.868 3.868 0 0 0 1.607.316zm8.074-4.91a3.777 3.777 0 0 1 .962-1.075q.6-.463 1.172-.848a11.546 11.546 0 0 0 .992-.739 1.01 1.01 0 0 0 .421-.769.7.7 0 0 0-.22-.552.9.9 0 0 0-.621-.2.926.926 0 0 0-.7.3 2.077 2.077 0 0 0-.441.749l-1.623-.946a4.037 4.037 0 0 1 .331-.72 2.5 2.5 0 0 1 .561-.661 2.958 2.958 0 0 1 .821-.483 2.94 2.94 0 0 1 1.092-.187 3.537 3.537 0 0 1 1.282.217 2.891 2.891 0 0 1 .942.572 2.288 2.288 0 0 1 .571.828 2.67 2.67 0 0 1 .19 1.006 2.317 2.317 0 0 1-.341 1.292 3.436 3.436 0 0 1-.811.877 5.74 5.74 0 0 1-.962.592 4.427 4.427 0 0 0-.771.454h2.999v1.873h-5.85z" transform="translate(49.98 35.901)" style="fill:#37474f"/>
        </g>
    </g>
    <g data-name="그룹 18990">
        <path data-name="다각형 92" d="M14.875.378A1 1 0 0 1 16.158.8l1.4 2.473a1 1 0 0 0 .64.482l2.672.633a1 1 0 0 1 .766 1.061L21.371 8.4a1 1 0 0 0 .229.729l1.864 2.23a1 1 0 0 1 0 1.283l-1.864 2.23a1 1 0 0 0-.229.729l.261 2.954a1 1 0 0 1-.766 1.061l-2.672.633a1 1 0 0 0-.64.482l-1.4 2.473a1 1 0 0 1-1.284.419l-2.462-1.115a1 1 0 0 0-.825 0l-2.458 1.114a1 1 0 0 1-1.283-.422l-1.4-2.473a1 1 0 0 0-.64-.482l-2.672-.633a1 1 0 0 1-.766-1.061l.265-2.951a1 1 0 0 0-.229-.729l-1.864-2.23a1 1 0 0 1 0-1.283L2.4 9.128a1 1 0 0 0 .229-.728l-.261-2.955a1 1 0 0 1 .766-1.061l2.672-.633a1 1 0 0 0 .64-.482L7.842.8A1 1 0 0 1 9.125.378l2.462 1.115a1 1 0 0 0 .825 0z" transform="translate(69.999 30.999)" style="fill:#455a64"/>
        <path data-name="패스 16364" d="M4.133 8.094 7.395 11.5l5.738-6" transform="translate(73.867 34.495)" style="stroke:#71868f;stroke-linejoin:bevel;fill:none;stroke-width:2px"/>
    </g>
</svg>
