<svg xmlns="http://www.w3.org/2000/svg" width="100" height="80" viewBox="0 0 100 80">
    <path data-name="사각형 19261" style="fill:none" d="M0 0h100v80H0z"/>
    <path data-name="빼기 13" d="M48 66H4a4 4 0 0 1-4-4V4a4 4 0 0 1 4-4h32.013L52 15.988V62a4.005 4.005 0 0 1-4 4z" transform="translate(24 7)" style="fill:#71868f"/>
    <path data-name="사각형 19254" transform="translate(32 25)" style="fill:#455a64" d="M0 0h20v4H0z"/>
    <path data-name="빼기 12" d="M16 16H4a4 4 0 0 1-4-4V0h.012L16 15.989V16z" transform="translate(60 7)" style="fill:#455a64"/>
    <path data-name="사각형 19255" transform="translate(32 35)" style="fill:#455a64" d="M0 0h36v4H0z"/>
    <g data-name="그룹 16962" transform="translate(-935 -541.775)">
        <circle data-name="타원 2400" cx="14" cy="14" r="14" transform="translate(996 590.775)" style="fill:#455a64"/>
        <path data-name="사각형 19257" transform="rotate(45 -215.002 1524.431)" style="fill:#71868f" d="M0 0h2v16H0z"/>
        <path data-name="사각형 19258" transform="rotate(135 381.887 515.42)" style="fill:#71868f" d="M0 0h2v16H0z"/>
    </g>
</svg>
