<svg xmlns="http://www.w3.org/2000/svg" width="100" height="80" viewBox="0 0 100 80">
  <defs>
    <style>
      .cls-1 {
        fill: rgba(255,255,255,0.45);
        opacity: 0;
      }

      .cls-2 {
        fill: #455a64;
      }

      .cls-3 {
        fill: #71868f;
      }
    </style>
  </defs>
  <g id="ic-result-notice" transform="translate(-1651 -518)">
    <rect id="사각형_19261" data-name="사각형 19261" class="cls-1" width="100" height="80" transform="translate(1651 518)"/>
    <path id="패스_16045" data-name="패스 16045" class="cls-2" d="M0-2,8,.2V17.8L0,20Z" transform="translate(1726 540)"/>
    <path id="패스_16044" data-name="패스 16044" class="cls-2" d="M0,0H9.17l5,26H5Z" transform="translate(1682 567)"/>
    <path id="합치기_357" data-name="합치기 357" class="cls-3" d="M8727,5125v0h-13v-7l0,0-10-7.541V5097h10v-6h13l36-10v52Zm-17-16.593,4,3.591v-10h-4Z" transform="translate(-7036.002 -4558)"/>
    <rect id="사각형_19849" data-name="사각형 19849" class="cls-2" width="4" height="34" transform="translate(1687 533)"/>
    <g id="그룹_16962" data-name="그룹 16962" transform="translate(717 -28.775)">
      <circle id="타원_2400" data-name="타원 2400" class="cls-2" cx="14" cy="14" r="14" transform="translate(996 593.775)"/>
      <rect id="사각형_19257" data-name="사각형 19257" class="cls-3" width="2" height="16" transform="translate(1014.963 601.525) rotate(45)"/>
      <rect id="사각형_19258" data-name="사각형 19258" class="cls-3" width="2" height="16" transform="translate(1016.378 612.842) rotate(135)"/>
    </g>
  </g>
</svg>
