<svg xmlns="http://www.w3.org/2000/svg" width="168" height="127" viewBox="0 0 168 127">
    <defs>
        <linearGradient id="8c33i54mba" x1=".5" x2=".5" y2="1" gradientUnits="objectBoundingBox">
            <stop offset="0" stop-color="#2979ff"/>
            <stop offset="1" stop-color="#26c6da"/>
        </linearGradient>
    </defs>
    <path data-name="사각형 34992" transform="translate(0 .001)" style="fill:none" d="M0 0h168v127H0z"/>
    <path data-name="패스 31800" d="M-7804.043 2876h79.856c23.172 0 41.958 19.427 41.958 43.392s-18.786 43.392-41.958 43.392h-79.856c-23.17 0-41.957-19.427-41.957-43.392s18.787-43.392 41.957-43.392z" transform="translate(7846 -2867.534)" style="fill:#3572db"/>
    <path data-name="패스 31864" d="M-7805.478 2876h77.126a40.556 40.556 0 0 1 40.522 40.592 40.557 40.557 0 0 1-40.522 40.593h-77.126a40.558 40.558 0 0 1-40.522-40.593 40.558 40.558 0 0 1 40.522-40.592z" transform="translate(7848.8 -2864.734)" style="fill:#4f8cf6"/>
    <path data-name="패스 31802" d="M36.393 0A36.393 36.393 0 1 1 0 36.393 36.393 36.393 0 0 1 36.393 0z" transform="translate(6.999 15.465)" style="fill:#fff"/>
    <path data-name="패스 31803" d="M0 0h2.8v27.995H0z" transform="translate(83.984 92.451)" style="fill:#3572db"/>
    <path data-name="패스 31804" d="M5.6 0A5.6 5.6 0 1 1 0 5.6 5.6 5.6 0 0 1 5.6 0z" transform="translate(79.785 114.846)" style="fill:#3572db"/>
    <path data-name="패스 31870" d="M12.6 0A12.6 12.6 0 1 1 0 12.6 12.6 12.6 0 0 1 12.6 0z" transform="translate(135.74 .068)" style="fill:#3572db"/>
    <path data-name="패스 31871" d="M9.8 0A9.8 9.8 0 1 1 0 9.8 9.8 9.8 0 0 1 9.8 0z" transform="translate(138.541 2.867)" style="fill:#fff"/>
    <path data-name="패스 31872" d="M6.994 13.989A6.994 6.994 0 1 0 0 6.994a6.994 6.994 0 0 0 6.994 6.995z" transform="translate(141.31 5.672)" style="fill:url(#8c33i54mba)"/>
    <g data-name="그룹 34608">
        <path data-name="패스 31815" d="M26.421 25.208h-9.77a6.3 6.3 0 0 0-12.291 0H0V2.8A2.8 2.8 0 0 1 2.8 0h39.22v25.2h-3.308a6.3 6.3 0 0 0-12.291 0zM5.253 3.6A1.778 1.778 0 0 0 3.5 5.4v9.9h7L14 3.6zm13.131 0L16.633 9h21.59V3.6H18.384z" transform="translate(22.401 37.848)" style="fill:#4f8cf6"/>
        <path data-name="패스 31816" d="M4.2 0A4.2 4.2 0 1 1 0 4.2 4.2 4.2 0 0 1 4.2 0z" transform="translate(28.704 60.258)" style="fill:#4f8cf6"/>
        <path data-name="패스 31817" d="M4.2 0A4.2 4.2 0 1 1 0 4.2 4.2 4.2 0 0 1 4.2 0z" transform="translate(50.766 60.258)" style="fill:#4f8cf6"/>
    </g>
    <path data-name="패스 32170" d="M12.885-2.057V.16h-2.412v4.091H7.916V.16H.342v-1.827l6.795-10.058h3.337v9.669zM7.916-6.611a19.606 19.606 0 0 1 .146-2.7h-.073a4.85 4.85 0 0 1-.463.974q-.365.633-.852 1.364L3.338-2.057h4.578zm16.269-2.9h-6.137L17.731-6.2a5.443 5.443 0 0 1 .974-.3 5.1 5.1 0 0 1 1.072-.11 5.784 5.784 0 0 1 2.009.353A4.776 4.776 0 0 1 23.479-5.2a5.069 5.069 0 0 1 1.157 1.741 6.2 6.2 0 0 1 .426 2.375 5.781 5.781 0 0 1-.438 2.277 5.173 5.173 0 0 1-1.23 1.778 5.819 5.819 0 0 1-1.875 1.169 6.5 6.5 0 0 1-2.4.426 6.018 6.018 0 0 1-1.827-.256 6.214 6.214 0 0 1-1.425-.645 5.829 5.829 0 0 1-1.083-.865A8.232 8.232 0 0 1 14 1.889L15.661.257q.268.365.585.718a3.774 3.774 0 0 0 .743.633 4.3 4.3 0 0 0 .95.463 3.654 3.654 0 0 0 1.206.183 3.506 3.506 0 0 0 1.279-.231 2.957 2.957 0 0 0 1.035-.67 3.233 3.233 0 0 0 .692-1.047 3.557 3.557 0 0 0 .256-1.388 3.2 3.2 0 0 0-.865-2.387 2.977 2.977 0 0 0-2.18-.852 3.413 3.413 0 0 0-1.486.292 4.766 4.766 0 0 0-1.145.779L15.1-3.761l.024-.1.706-7.866h8.354zm13.03 0h-6.138L30.761-6.2a5.443 5.443 0 0 1 .974-.3 5.1 5.1 0 0 1 1.072-.11 5.784 5.784 0 0 1 2.009.353A4.776 4.776 0 0 1 36.508-5.2a5.069 5.069 0 0 1 1.157 1.741 6.2 6.2 0 0 1 .426 2.375 5.78 5.78 0 0 1-.438 2.277 5.173 5.173 0 0 1-1.23 1.778 5.819 5.819 0 0 1-1.875 1.169 6.5 6.5 0 0 1-2.4.426 6.018 6.018 0 0 1-1.827-.256 6.214 6.214 0 0 1-1.421-.643 5.828 5.828 0 0 1-1.086-.867 8.232 8.232 0 0 1-.779-.913l1.656-1.63q.268.365.585.718a3.774 3.774 0 0 0 .743.633 4.3 4.3 0 0 0 .95.463 3.654 3.654 0 0 0 1.206.183 3.506 3.506 0 0 0 1.279-.231 2.957 2.957 0 0 0 1.035-.67 3.233 3.233 0 0 0 .692-1.047 3.557 3.557 0 0 0 .256-1.388 3.2 3.2 0 0 0-.865-2.387 2.977 2.977 0 0 0-2.18-.852 3.413 3.413 0 0 0-1.486.292 4.766 4.766 0 0 0-1.145.779l-1.631-.511.024-.1.706-7.866h8.354zm12.518 1.536a3.853 3.853 0 0 0-1.291-1.266 3.5 3.5 0 0 0-1.851-.487 3.46 3.46 0 0 0-2.752 1.291 6.49 6.49 0 0 0-1.242 3.9 5.119 5.119 0 0 1 1.6-1.437 4.548 4.548 0 0 1 2.326-.56 4.986 4.986 0 0 1 1.985.4A4.874 4.874 0 0 1 50.135-5a5.555 5.555 0 0 1 1.108 1.741 5.825 5.825 0 0 1 .414 2.228 5.717 5.717 0 0 1-.438 2.253A5.343 5.343 0 0 1 50.013 3a5.525 5.525 0 0 1-1.79 1.157 5.786 5.786 0 0 1-2.192.414 5.63 5.63 0 0 1-2.618-.585 5.335 5.335 0 0 1-1.887-1.62 7.279 7.279 0 0 1-1.132-2.5 12.841 12.841 0 0 1-.377-3.215A13.217 13.217 0 0 1 40.478-7a8.2 8.2 0 0 1 1.315-2.728 5.763 5.763 0 0 1 2.07-1.717 6.116 6.116 0 0 1 2.728-.6 6.017 6.017 0 0 1 1.62.207 5.766 5.766 0 0 1 1.352.56 5.552 5.552 0 0 1 1.1.828 5.647 5.647 0 0 1 .828 1.011zm-6.7 6.99a3.424 3.424 0 0 0 .792 2.326 2.733 2.733 0 0 0 2.18.913 2.762 2.762 0 0 0 2.2-.913A3.424 3.424 0 0 0 49-.985a3.459 3.459 0 0 0-.792-2.35 2.762 2.762 0 0 0-2.2-.913 2.733 2.733 0 0 0-2.18.913 3.46 3.46 0 0 0-.793 2.35z" transform="translate(92.178 54.963)" style="fill:#fff"/>
</svg>
