<svg xmlns="http://www.w3.org/2000/svg" width="168" height="127" viewBox="0 0 168 127">
    <defs>
        <linearGradient id="j9h7s4bg4a" x1=".5" x2=".5" y2="1" gradientUnits="objectBoundingBox">
            <stop offset="0" stop-color="#ff8a80"/>
            <stop offset="1" stop-color="#ea80fc"/>
        </linearGradient>
        <linearGradient id="iywugs0oqb" x1=".5" y1="1" x2=".5" gradientUnits="objectBoundingBox">
            <stop offset="0" stop-color="#ffbc69"/>
            <stop offset="1" stop-color="#f99e15"/>
        </linearGradient>
    </defs>
    <path data-name="사각형 34992" style="fill:none" d="M0 0h168v127H0z"/>
    <path data-name="패스 31800" d="M-7804.023 2876h79.895c23.184 0 41.977 19.437 41.977 43.413s-18.793 43.413-41.977 43.413h-79.895c-23.182 0-41.977-19.437-41.977-43.413s18.795-43.413 41.977-43.413z" transform="translate(7846 -2867.597)" style="fill:#3572db"/>
    <path data-name="패스 31864" d="M-7805.457 2876h77.162a40.578 40.578 0 0 1 40.543 40.612 40.578 40.578 0 0 1-40.543 40.612h-77.162a40.578 40.578 0 0 1-40.543-40.612 40.578 40.578 0 0 1 40.543-40.612z" transform="translate(7848.802 -2864.796)" style="fill:#4f8cf6"/>
    <path data-name="패스 31802" d="M36.411 0A36.411 36.411 0 1 1 0 36.411 36.411 36.411 0 0 1 36.411 0z" transform="translate(7.002 15.405)" style="fill:#fff"/>
    <path data-name="패스 31803" d="M0 0h2.8v28.008H0z" transform="translate(84.025 92.428)" style="fill:#3572db"/>
    <path data-name="패스 31804" d="M5.6 0A5.6 5.6 0 1 1 0 5.6 5.6 5.6 0 0 1 5.6 0z" transform="translate(79.823 114.834)" style="fill:#3572db"/>
    <g data-name="사각형 34994" transform="translate(120.309)" style="stroke:#3572db;stroke-width:3.8px;fill:#fff">
        <rect width="43.541" height="25.217" rx="12.609" style="stroke:none"/>
        <rect x="1.9" y="1.9" width="39.741" height="21.417" rx="10.709" style="fill:none"/>
    </g>
    <path data-name="패스 31866" d="M7 0a7 7 0 1 1-7 7 7 7 0 0 1 7-7z" transform="translate(126.771 5.611)" style="fill:url(#j9h7s4bg4a)"/>
    <path data-name="패스 31867" d="M7 0a7 7 0 1 1-7 7 7 7 0 0 1 7-7z" transform="translate(143.452 5.611)" style="fill:url(#iywugs0oqb)"/>
    <g data-name="그룹 34517">
        <path data-name="패스 31815" d="M26.421 25.208h-9.77a6.3 6.3 0 0 0-12.291 0H0V2.8A2.8 2.8 0 0 1 2.8 0h39.22v25.2h-3.308a6.3 6.3 0 0 0-12.291 0zM5.253 3.6A1.778 1.778 0 0 0 3.5 5.4v9.9h7L14 3.6zm13.131 0L16.633 9h21.59V3.6H18.384z" transform="translate(22.402 37.847)" style="fill:#4f8cf6"/>
        <path data-name="패스 31816" d="M4.2 0A4.2 4.2 0 1 1 0 4.2 4.2 4.2 0 0 1 4.2 0z" transform="translate(28.705 60.257)" style="fill:#4f8cf6"/>
        <path data-name="패스 31817" d="M4.2 0A4.2 4.2 0 1 1 0 4.2 4.2 4.2 0 0 1 4.2 0z" transform="translate(50.767 60.257)" style="fill:#4f8cf6"/>
    </g>
    <path data-name="패스 31868" d="M1.17-8.112a6.532 6.532 0 0 1 .609-1.357 5.413 5.413 0 0 1 1.027-1.268 5.12 5.12 0 0 1 1.5-.938 5.167 5.167 0 0 1 2.016-.368 6.435 6.435 0 0 1 2.295.38A4.713 4.713 0 0 1 10.3-10.6a4.534 4.534 0 0 1 1.04 1.623 5.686 5.686 0 0 1 .355 2.029 5.936 5.936 0 0 1-.418 2.282 8 8 0 0 1-1.09 1.876A11.374 11.374 0 0 1 8.7-1.214Q7.89-.5 7.091.142T5.608 1.4a5.718 5.718 0 0 0-1.065 1.215h7.379v2.307H1.221V2.97a8.308 8.308 0 0 1 1.23-1.915 17.427 17.427 0 0 1 1.61-1.648q.862-.773 1.724-1.483a16.247 16.247 0 0 0 1.56-1.458 7.912 7.912 0 0 0 1.141-1.547 3.518 3.518 0 0 0 .444-1.737 3.173 3.173 0 0 0-.621-2.029 2.514 2.514 0 0 0-2.092-.786q-2.13 0-2.84 2.46zM19.58 5.252a6.58 6.58 0 0 1-1.965-.266 6.1 6.1 0 0 1-1.5-.685A5.8 5.8 0 0 1 15 3.376a11.594 11.594 0 0 1-.824-.989L15.9.662a8.86 8.86 0 0 0 .621.8 4.341 4.341 0 0 0 .773.7 3.867 3.867 0 0 0 .989.494 4.007 4.007 0 0 0 1.293.19 3.82 3.82 0 0 0 2.447-.735A2.531 2.531 0 0 0 22.952 0a2.462 2.462 0 0 0-.837-1.965 3.844 3.844 0 0 0-2.561-.723H18.16v-2.228h1.395a2.457 2.457 0 0 0 1.965-.723 2.507 2.507 0 0 0 .621-1.686 2.113 2.113 0 0 0-.7-1.737 2.692 2.692 0 0 0-1.762-.571 3.638 3.638 0 0 0-1.991.494 3.5 3.5 0 0 0-1.2 1.281l-1.6-1.572a6.436 6.436 0 0 1 1.912-1.839 5.212 5.212 0 0 1 2.878-.773 5.655 5.655 0 0 1 3.842 1.2 4.221 4.221 0 0 1 1.38 3.364 3.672 3.672 0 0 1-.6 2A4.079 4.079 0 0 1 22.648-4a4.2 4.2 0 0 1 2.282 1.56 4.4 4.4 0 0 1 .786 2.62 4.641 4.641 0 0 1-.469 2.1 4.8 4.8 0 0 1-1.281 1.6 5.8 5.8 0 0 1-1.939 1.02 8.115 8.115 0 0 1-2.447.352zM40.2-1.645V.662h-2.51v4.26h-2.667V.662h-7.887v-1.9l7.075-10.473h3.474v10.066zm-5.177-4.742a20.414 20.414 0 0 1 .152-2.813H35.1a5.049 5.049 0 0 1-.482 1.014q-.38.659-.888 1.42l-3.475 5.121h4.767zM51.962-9.4h-6.39l-.33 3.449a5.668 5.668 0 0 1 1.014-.317 5.313 5.313 0 0 1 1.116-.114 6.023 6.023 0 0 1 2.092.368 4.973 4.973 0 0 1 1.762 1.1 5.278 5.278 0 0 1 1.2 1.813 6.45 6.45 0 0 1 .444 2.472 6.019 6.019 0 0 1-.456 2.371 5.386 5.386 0 0 1-1.281 1.851A6.059 6.059 0 0 1 49.18 4.81a6.77 6.77 0 0 1-2.5.444 6.266 6.266 0 0 1-1.9-.266 6.47 6.47 0 0 1-1.48-.674 6.069 6.069 0 0 1-1.128-.9 8.572 8.572 0 0 1-.811-.951l1.724-1.7q.279.38.609.748a3.93 3.93 0 0 0 .773.659 4.477 4.477 0 0 0 .989.482 3.8 3.8 0 0 0 1.255.19 3.65 3.65 0 0 0 1.333-.242 3.079 3.079 0 0 0 1.078-.7 3.366 3.366 0 0 0 .723-1.09 3.7 3.7 0 0 0 .266-1.445 3.332 3.332 0 0 0-.9-2.485 3.1 3.1 0 0 0-2.27-.88 3.554 3.554 0 0 0-1.547.3 4.963 4.963 0 0 0-1.192.811L42.5-3.42l.025-.1.735-8.191h8.7z" transform="translate(91.147 55.221)" style="fill:#fff"/>
</svg>
