<svg xmlns="http://www.w3.org/2000/svg" width="120" height="120" viewBox="0 0 120 120">
    <defs>
        <linearGradient id="59c4w3vmub" x1=".5" x2=".5" y2="1" gradientUnits="objectBoundingBox">
            <stop offset="0" stop-color="#0069c0"/>
            <stop offset="1" stop-color="#0762ae"/>
        </linearGradient>
        <linearGradient id="fhqogzhltc" x1=".5" x2=".5" y2="1" gradientUnits="objectBoundingBox">
            <stop offset="0" stop-color="#2889f7"/>
            <stop offset="1" stop-color="#0762ae"/>
        </linearGradient>
        <linearGradient id="xp41zzie5e" x1=".5" x2=".5" y2="1" gradientUnits="objectBoundingBox">
            <stop offset="0" stop-color="#fff"/>
            <stop offset="1" stop-color="#eceff1"/>
        </linearGradient>
        <linearGradient id="2oefgeaddf" x1=".5" y1="1.084" x2=".5" y2=".573" gradientUnits="objectBoundingBox">
            <stop offset="0" stop-color="#5c8cde"/>
            <stop offset="1" stop-color="#78e3f1"/>
        </linearGradient>
        <linearGradient id="jiwo5hjl5g" x1="1.282" y1="1" x2="1.257" y2=".059" gradientUnits="objectBoundingBox">
            <stop offset="0" stop-color="#2979ff"/>
            <stop offset="1" stop-color="#26c6da"/>
        </linearGradient>
        <linearGradient id="px7eip44mh" x1="1" y1=".5" x2=".183" y2=".5" gradientUnits="objectBoundingBox">
            <stop offset="0" stop-color="#78909c"/>
            <stop offset="1" stop-color="#3a4e5b"/>
        </linearGradient>
        <filter id="aq0j93bmka" x="4.496" y="6.003" width="111.004" height="107.998" filterUnits="userSpaceOnUse">
            <feOffset/>
            <feGaussianBlur stdDeviation="3" result="blur"/>
            <feFlood flood-color="#90caf9" flood-opacity=".149"/>
            <feComposite operator="in" in2="blur"/>
            <feComposite in="SourceGraphic"/>
        </filter>
        <filter id="al4nph5x1d" x="10.498" y="3" width="99" height="113.994" filterUnits="userSpaceOnUse">
            <feOffset dy="3"/>
            <feGaussianBlur stdDeviation="5" result="blur-2"/>
            <feFlood flood-opacity=".102"/>
            <feComposite operator="in" in2="blur-2"/>
            <feComposite in="SourceGraphic"/>
        </filter>
    </defs>
    <path data-name="사각형 7093" style="fill:none" d="M0 0h120v120H0z"/>
    <g style="filter:url(#aq0j93bmka)">
        <path data-name="패스 32153" d="M23079.527-204h-74.242a4.568 4.568 0 0 1-4.289-4.8V-258h.012l11.988-7.736V-294h60.395l8.613 9.55v18.706l12 7.74v49.2a4.568 4.568 0 0 1-4.289 4.8z" transform="translate(-22987.5 309)" style="fill:url(#59c4w3vmub)"/>
    </g>
    <path data-name="패스 32154" d="M-1.5 30 45 0l46.5 30L45 66z" transform="translate(15 20.998)" style="fill:url(#fhqogzhltc)"/>
    <g style="filter:url(#al4nph5x1d)">
        <path data-name="패스 32155" d="M8804.5-21517.1h-69v-83.994h60.4l8.605 9.551v74.443z" transform="translate(-8710 21616.1)" style="fill:url(#xp41zzie5e)"/>
    </g>
    <path data-name="패스 32156" d="M88.623 54H4.376A4.609 4.609 0 0 1 0 49.2V0l46.5 30L93 0v49.2a4.609 4.609 0 0 1-4.377 4.8z" transform="translate(13.5 51)" style="fill:url(#2oefgeaddf)"/>
    <path data-name="패스 16537" d="m0 0 42 27.151L14.475 54H4.289A4.566 4.566 0 0 1 0 49.2z" transform="translate(13.5 51)" style="fill:url(#jiwo5hjl5g)"/>
    <path data-name="패스 16589" d="M41.981 0 .037 27.05 27.507 54h10.186a4.566 4.566 0 0 0 4.289-4.8z" transform="translate(64.52 51)" style="fill:url(#jiwo5hjl5g)"/>
    <path data-name="패스 32152" d="M0 0h43.5v6H0z" transform="translate(36 33)" style="opacity:.3;fill:url(#px7eip44mh)"/>
    <path data-name="패스 32151" d="M0 0h31.5v6H0z" transform="translate(40.5 46.5)" style="opacity:.3;fill:url(#px7eip44mh)"/>
</svg>
