<svg xmlns="http://www.w3.org/2000/svg" width="228" height="180" viewBox="0 0 228 180">
    <path data-name="사각형 34993" style="fill:none" d="M0 0h228v180H0z"/>
    <g data-name="패스 31854" style="fill:#fff">
        <path d="M-7676.007 2969.83h-113.328c-7.448 0-14.672-1.46-21.473-4.335a55.192 55.192 0 0 1-17.535-11.823 55.54 55.54 0 0 1-6.737-8.166 55.173 55.173 0 0 1-5.087-9.37c-2.875-6.8-4.334-14.024-4.334-21.472 0-7.447 1.459-14.672 4.334-21.472a55.173 55.173 0 0 1 5.087-9.37 55.553 55.553 0 0 1 14.902-14.902 55.174 55.174 0 0 1 9.37-5.086c6.8-2.876 14.025-4.334 21.473-4.334h113.328c7.448 0 14.672 1.458 21.471 4.334a55.133 55.133 0 0 1 9.37 5.086 55.518 55.518 0 0 1 14.902 14.902 55.137 55.137 0 0 1 5.086 9.37c2.876 6.8 4.334 14.025 4.334 21.472 0 7.448-1.458 14.672-4.334 21.472a55.127 55.127 0 0 1-5.086 9.37 55.52 55.52 0 0 1-14.902 14.903 55.133 55.133 0 0 1-9.37 5.086c-6.8 2.876-14.023 4.334-21.47 4.334z" style="stroke:none" transform="translate(7846.94 -2858)"/>
        <path d="M-7789.335 2861c-7.247 0-14.274 1.418-20.888 4.216a53.654 53.654 0 0 0-9.115 4.947 54.062 54.062 0 0 0-7.944 6.555 54.08 54.08 0 0 0-6.555 7.944 53.669 53.669 0 0 0-4.948 9.115c-2.798 6.614-4.216 13.641-4.216 20.887s1.418 14.274 4.216 20.888a53.67 53.67 0 0 0 4.948 9.115 54.08 54.08 0 0 0 6.555 7.944 54.062 54.062 0 0 0 7.944 6.555 53.654 53.654 0 0 0 9.115 4.947c6.614 2.798 13.641 4.216 20.888 4.216h113.328c7.246 0 14.273-1.418 20.887-4.216a53.668 53.668 0 0 0 9.115-4.947 54.083 54.083 0 0 0 7.943-6.555 54.077 54.077 0 0 0 6.555-7.944 53.669 53.669 0 0 0 4.947-9.115c2.798-6.614 4.216-13.642 4.216-20.888 0-7.246-1.418-14.273-4.216-20.887a53.678 53.678 0 0 0-4.947-9.115 54.088 54.088 0 0 0-6.555-7.944 54.058 54.058 0 0 0-7.943-6.555 53.65 53.65 0 0 0-9.115-4.947c-6.614-2.798-13.641-4.216-20.887-4.216h-113.328m0-3h113.328c31.294 0 56.663 25.37 56.663 56.664 0 31.295-25.369 56.665-56.663 56.665h-113.328c-31.295 0-56.666-25.37-56.666-56.665 0-31.294 25.371-56.664 56.666-56.664z" style="fill:#3572db;stroke:none" transform="translate(7846.94 -2858)"/>
    </g>
    <path data-name="패스 31858" d="M45.332 0A45.332 45.332 0 1 1 0 45.332 45.332 45.332 0 0 1 45.332 0z" transform="translate(12.272 11.333)" style="fill:#4f8cf6"/>
    <path data-name="패스 31860" d="M33.215 32.581h-12a7.792 7.792 0 0 0-15.519 0H0V2.833A2.836 2.836 0 0 1 2.833 0h49.581v32.579h-3.68a7.792 7.792 0 0 0-15.519 0zM6.552 4.654A2.261 2.261 0 0 0 4.368 6.98v12.8H13.1l4.372-15.126zm16.379 0-2.184 6.982h26.928V4.654z" transform="translate(30.687 39.665)" style="fill:#fff"/>
    <path data-name="패스 31861" d="M5.666 0A5.666 5.666 0 1 1 0 5.666 5.666 5.666 0 0 1 5.666 0z" transform="translate(38.479 67.29)" style="fill:#fff"/>
    <path data-name="패스 31862" d="M5.666 0A5.666 5.666 0 1 1 0 5.666 5.666 5.666 0 0 1 5.666 0z" transform="translate(66.007 67.29)" style="fill:#fff"/>
    <path data-name="패스 31855" d="M0 0h4.25v42.5H0z" transform="translate(112.143 113.33)" style="fill:#3572db"/>
    <path data-name="패스 31856" d="M21.249 0A21.249 21.249 0 1 1 0 21.249 21.249 21.249 0 0 1 21.249 0z" transform="translate(93.019 137.411)" style="opacity:.3;fill:#3572db"/>
    <path data-name="패스 31857" d="M8.5 0A8.5 8.5 0 1 1 0 8.5 8.5 8.5 0 0 1 8.5 0z" transform="translate(105.768 150.161)" style="fill:#3572db"/>
    <path data-name="패스 31863" d="M134.258 47.372h-8.567l-.442 4.62a7.6 7.6 0 0 1 1.36-.425 7.123 7.123 0 0 1 1.5-.153 8.075 8.075 0 0 1 2.8.493 6.667 6.667 0 0 1 2.363 1.485 7.076 7.076 0 0 1 1.615 2.429 8.648 8.648 0 0 1 .595 3.315 8.069 8.069 0 0 1-.615 3.178 7.222 7.222 0 0 1-1.714 2.478 8.124 8.124 0 0 1-2.618 1.632 9.077 9.077 0 0 1-3.349.595 8.4 8.4 0 0 1-2.55-.357 8.675 8.675 0 0 1-1.989-.9 8.137 8.137 0 0 1-1.512-1.204 11.492 11.492 0 0 1-1.088-1.275l2.312-2.278q.374.51.816 1a5.269 5.269 0 0 0 1.037.887 6 6 0 0 0 1.326.646 5.1 5.1 0 0 0 1.683.254 4.894 4.894 0 0 0 1.785-.323 4.129 4.129 0 0 0 1.445-.935 4.513 4.513 0 0 0 .969-1.462 4.966 4.966 0 0 0 .357-1.937 4.468 4.468 0 0 0-1.21-3.331 4.156 4.156 0 0 0-3.04-1.19 4.765 4.765 0 0 0-2.074.408 6.654 6.654 0 0 0-1.6 1.088l-2.276-.718.034-.136.986-10.978h11.661zm17.475 2.142a5.379 5.379 0 0 0-1.8-1.768 4.886 4.886 0 0 0-2.584-.68 4.831 4.831 0 0 0-3.842 1.8 9.06 9.06 0 0 0-1.734 5.44 7.146 7.146 0 0 1 2.226-2.004 6.349 6.349 0 0 1 3.247-.782 6.96 6.96 0 0 1 2.771.561 6.8 6.8 0 0 1 2.278 1.581 7.755 7.755 0 0 1 1.547 2.43 8.132 8.132 0 0 1 .578 3.111 7.981 7.981 0 0 1-.612 3.145 7.459 7.459 0 0 1-1.683 2.482 7.713 7.713 0 0 1-2.5 1.615 8.077 8.077 0 0 1-3.06.578 7.859 7.859 0 0 1-3.655-.816 7.448 7.448 0 0 1-2.635-2.261 10.162 10.162 0 0 1-1.58-3.485 17.926 17.926 0 0 1-.528-4.487 18.45 18.45 0 0 1 .646-5.1 11.454 11.454 0 0 1 1.836-3.808 8.046 8.046 0 0 1 2.89-2.4 8.538 8.538 0 0 1 3.808-.833 8.4 8.4 0 0 1 2.261.289 8.05 8.05 0 0 1 1.887.782 7.75 7.75 0 0 1 1.53 1.156 7.883 7.883 0 0 1 1.156 1.411zm-9.349 9.757a4.779 4.779 0 0 0 1.1 3.247 3.815 3.815 0 0 0 3.048 1.274 3.855 3.855 0 0 0 3.077-1.275 4.779 4.779 0 0 0 1.1-3.247 4.829 4.829 0 0 0-1.1-3.281 3.855 3.855 0 0 0-3.077-1.275 3.815 3.815 0 0 0-3.043 1.278 4.829 4.829 0 0 0-1.105 3.279zm29.239-14.993v2.55l-8.296 19.753h-4.012v-.1l8.228-19.109h-10.2v-3.094zm10.982 22.745a11.462 11.462 0 0 1-3.587-.51 7.435 7.435 0 0 1-2.584-1.411 5.82 5.82 0 0 1-1.567-2.142 6.756 6.756 0 0 1-.524-2.668 6.582 6.582 0 0 1 .289-1.955 6.206 6.206 0 0 1 .816-1.7 5.517 5.517 0 0 1 1.292-1.326 5.435 5.435 0 0 1 1.683-.833 4.909 4.909 0 0 1-2.21-1.938 5.43 5.43 0 0 1-.714-2.788 5.868 5.868 0 0 1 .442-2.261 5.2 5.2 0 0 1 1.343-1.887 6.586 6.586 0 0 1 2.227-1.292 9.149 9.149 0 0 1 3.094-.476 9.149 9.149 0 0 1 3.094.476 6.4 6.4 0 0 1 2.21 1.292 5.49 5.49 0 0 1 1.342 1.888 5.68 5.68 0 0 1 .459 2.261 5.43 5.43 0 0 1-.714 2.788 4.909 4.909 0 0 1-2.21 1.938 5.435 5.435 0 0 1 1.683.833 5.517 5.517 0 0 1 1.292 1.326 6.205 6.205 0 0 1 .816 1.7 6.582 6.582 0 0 1 .29 1.954 6.756 6.756 0 0 1-.527 2.669 5.82 5.82 0 0 1-1.565 2.141 7.435 7.435 0 0 1-2.584 1.411 11.462 11.462 0 0 1-3.586.51zm0-10.948a4.623 4.623 0 0 0-3.4 1.122 3.785 3.785 0 0 0-1.122 2.788 3.729 3.729 0 0 0 1.122 2.771 4.667 4.667 0 0 0 3.4 1.1 4.667 4.667 0 0 0 3.4-1.1 3.729 3.729 0 0 0 1.121-2.771 3.785 3.785 0 0 0-1.122-2.788 4.623 4.623 0 0 0-3.399-1.121zm0-9.112a3.626 3.626 0 0 0-2.414.8 2.749 2.749 0 0 0-.952 2.229 2.749 2.749 0 0 0 .952 2.227 3.626 3.626 0 0 0 2.414.8 3.626 3.626 0 0 0 2.414-.8 2.749 2.749 0 0 0 .948-2.227 2.749 2.749 0 0 0-.952-2.227 3.626 3.626 0 0 0-2.41-.801z"/>
</svg>
