<svg xmlns="http://www.w3.org/2000/svg" width="168" height="127" viewBox="0 0 168 127">
    <defs>
        <linearGradient id="yhjt2lh7za" x1=".5" y1="1" x2=".5" gradientUnits="objectBoundingBox">
            <stop offset="0" stop-color="#ffbc69"/>
            <stop offset="1" stop-color="#f99e15"/>
        </linearGradient>
    </defs>
    <path data-name="사각형 34992" transform="translate(0 .001)" style="fill:none" d="M0 0h168v127H0z"/>
    <path data-name="패스 31800" d="M-7804.043 2876h79.856c23.172 0 41.958 19.427 41.958 43.392s-18.786 43.392-41.958 43.392h-79.856c-23.17 0-41.957-19.427-41.957-43.392s18.787-43.392 41.957-43.392z" transform="translate(7846 -2867.534)" style="fill:#3572db"/>
    <path data-name="패스 31864" d="M-7805.478 2876h77.126a40.556 40.556 0 0 1 40.522 40.592 40.557 40.557 0 0 1-40.522 40.593h-77.126a40.558 40.558 0 0 1-40.522-40.593 40.558 40.558 0 0 1 40.522-40.592z" transform="translate(7848.8 -2864.734)" style="fill:#4f8cf6"/>
    <path data-name="패스 31802" d="M36.393 0A36.393 36.393 0 1 1 0 36.393 36.393 36.393 0 0 1 36.393 0z" transform="translate(6.999 15.465)" style="fill:#fff"/>
    <path data-name="패스 31803" d="M0 0h2.8v27.995H0z" transform="translate(83.984 92.451)" style="fill:#3572db"/>
    <path data-name="패스 31804" d="M5.6 0A5.6 5.6 0 1 1 0 5.6 5.6 5.6 0 0 1 5.6 0z" transform="translate(79.785 114.846)" style="fill:#3572db"/>
    <path data-name="패스 31869" d="M6.059 4.879a6.438 6.438 0 0 1-1.923-.261 5.964 5.964 0 0 1-1.464-.67 5.678 5.678 0 0 1-1.092-.905 11.344 11.344 0 0 1-.806-.968L2.461.388a8.669 8.669 0 0 0 .608.782 4.248 4.248 0 0 0 .757.682 3.784 3.784 0 0 0 .968.484 3.92 3.92 0 0 0 1.265.186A3.737 3.737 0 0 0 8.453 1.8a2.476 2.476 0 0 0 .905-2.057A2.409 2.409 0 0 0 8.54-2.18a3.761 3.761 0 0 0-2.506-.707H4.669V-5.07h1.365a2.4 2.4 0 0 0 1.923-.707 2.453 2.453 0 0 0 .608-1.65 2.067 2.067 0 0 0-.682-1.7 2.634 2.634 0 0 0-1.724-.558A3.559 3.559 0 0 0 4.21-9.2a3.421 3.421 0 0 0-1.178 1.252L1.469-9.487a6.3 6.3 0 0 1 1.873-1.8 5.1 5.1 0 0 1 2.816-.757 5.533 5.533 0 0 1 3.759 1.178 4.13 4.13 0 0 1 1.352 3.287 3.592 3.592 0 0 1-.583 1.96 3.991 3.991 0 0 1-1.625 1.442 4.108 4.108 0 0 1 2.233 1.526 4.308 4.308 0 0 1 .769 2.568 4.541 4.541 0 0 1-.463 2.059 4.7 4.7 0 0 1-1.253 1.563 5.673 5.673 0 0 1-1.9.992 7.94 7.94 0 0 1-2.388.348zm20.17-6.749V.388h-2.456v4.168h-2.605V.388h-7.716v-1.861l6.922-10.247h3.4v9.85zm-5.061-4.64a19.973 19.973 0 0 1 .149-2.754h-.074a4.94 4.94 0 0 1-.471.992q-.372.645-.868 1.389L16.5-1.87h4.664zm16.573-2.952h-6.252l-.323 3.374a5.545 5.545 0 0 1 .992-.31 5.2 5.2 0 0 1 1.092-.112 5.893 5.893 0 0 1 2.047.36 4.865 4.865 0 0 1 1.725 1.08A5.164 5.164 0 0 1 38.2-3.3a6.311 6.311 0 0 1 .434 2.419 5.889 5.889 0 0 1-.447 2.32 5.27 5.27 0 0 1-1.253 1.811 5.928 5.928 0 0 1-1.91 1.191 6.624 6.624 0 0 1-2.444.434 6.13 6.13 0 0 1-1.861-.261 6.33 6.33 0 0 1-1.451-.657 5.938 5.938 0 0 1-1.1-.881 8.386 8.386 0 0 1-.794-.93L29.058.487q.273.372.6.732a3.845 3.845 0 0 0 .757.645 4.38 4.38 0 0 0 .968.471 3.722 3.722 0 0 0 1.228.186 3.571 3.571 0 0 0 1.3-.236 3.013 3.013 0 0 0 1.052-.685A3.293 3.293 0 0 0 35.67.537a3.624 3.624 0 0 0 .26-1.414 3.26 3.26 0 0 0-.881-2.431 3.033 3.033 0 0 0-2.221-.868 3.477 3.477 0 0 0-1.513.3 4.855 4.855 0 0 0-1.166.794l-1.662-.521.025-.1.719-8.014h8.51zM50.494-7.9a3.925 3.925 0 0 0-1.315-1.29 3.566 3.566 0 0 0-1.886-.5 3.525 3.525 0 0 0-2.8 1.315A6.612 6.612 0 0 0 43.224-4.4a5.215 5.215 0 0 1 1.625-1.464 4.633 4.633 0 0 1 2.369-.571 5.079 5.079 0 0 1 2.022.409 4.966 4.966 0 0 1 1.66 1.154A5.659 5.659 0 0 1 52.032-3.1a5.934 5.934 0 0 1 .422 2.27 5.824 5.824 0 0 1-.447 2.295 5.443 5.443 0 0 1-1.228 1.811 5.629 5.629 0 0 1-1.824 1.178 5.894 5.894 0 0 1-2.233.422 5.735 5.735 0 0 1-2.667-.6 5.435 5.435 0 0 1-1.923-1.65A7.416 7.416 0 0 1 40.979.09a13.082 13.082 0 0 1-.385-3.275 13.464 13.464 0 0 1 .471-3.722 8.358 8.358 0 0 1 1.34-2.779 5.871 5.871 0 0 1 2.109-1.749 6.231 6.231 0 0 1 2.779-.608 6.13 6.13 0 0 1 1.65.211 5.875 5.875 0 0 1 1.377.571 5.656 5.656 0 0 1 1.116.844 5.753 5.753 0 0 1 .844 1.03zM43.671-.778a3.488 3.488 0 0 0 .806 2.369 2.784 2.784 0 0 0 2.221.93 2.813 2.813 0 0 0 2.245-.93 3.488 3.488 0 0 0 .807-2.369 3.524 3.524 0 0 0-.806-2.394A2.813 2.813 0 0 0 46.7-4.1a2.784 2.784 0 0 0-2.221.93 3.524 3.524 0 0 0-.808 2.392z" transform="translate(91.369 55.033)" style="fill:#fff"/>
    <path data-name="패스 31870" d="M12.6 0A12.6 12.6 0 1 1 0 12.6 12.6 12.6 0 0 1 12.6 0z" transform="translate(135.74 .068)" style="fill:#3572db"/>
    <path data-name="패스 31871" d="M9.8 0A9.8 9.8 0 1 1 0 9.8 9.8 9.8 0 0 1 9.8 0z" transform="translate(138.541 2.867)" style="fill:#fff"/>
    <path data-name="패스 31872" d="M6.994 0A6.994 6.994 0 1 1 0 6.994 6.994 6.994 0 0 1 6.994 0z" transform="translate(141.31 5.672)" style="fill:url(#yhjt2lh7za)"/>
    <path data-name="패스 31876" d="M0 0h25.2v14H0z" transform="translate(39.464 39.111)" style="fill:#4f8cf6"/>
    <path data-name="패스 31877" d="M-6004.627 6372.6h-10.151a5.6 5.6 0 0 0-5.423-4.2 5.6 5.6 0 0 0-5.422 4.2H-6030v-15.4a4.2 4.2 0 0 1 4.2-4.2h9.8v12.6h27.995v7h-5.777a5.594 5.594 0 0 0-5.422-4.2 5.6 5.6 0 0 0-5.421 4.2z" transform="translate(6052.666 -6309.689)" style="fill:#4f8cf6"/>
    <path data-name="패스 31878" d="M3.5 0A3.5 3.5 0 1 1 0 3.5 3.5 3.5 0 0 1 3.5 0z" transform="translate(28.967 60.807)" style="fill:#4f8cf6"/>
    <path data-name="패스 31879" d="M3.5 0A3.5 3.5 0 1 1 0 3.5 3.5 3.5 0 0 1 3.5 0z" transform="translate(49.963 60.807)" style="fill:#4f8cf6"/>
</svg>
