<svg xmlns="http://www.w3.org/2000/svg" width="168" height="127" viewBox="0 0 168 127">
    <path data-name="사각형 34992" style="fill:none" d="M0 0h168v127H0z"/>
    <path data-name="패스 31800" d="M-7804.057 2876h79.828c23.164 0 41.943 19.42 41.943 43.376s-18.779 43.377-41.943 43.377h-79.828c-23.164 0-41.943-19.42-41.943-43.377s18.779-43.376 41.943-43.376z" transform="translate(7846 -2867.605)" style="fill:#3572db"/>
    <path data-name="패스 31864" d="M-7805.49 2876h77.1a40.544 40.544 0 0 1 40.508 40.578 40.544 40.544 0 0 1-40.508 40.579h-77.1a40.544 40.544 0 0 1-40.51-40.579 40.544 40.544 0 0 1 40.51-40.578z" transform="translate(7848.8 -2864.806)" style="fill:#4f8cf6"/>
    <path data-name="패스 31802" d="M36.381 0A36.381 36.381 0 1 1 0 36.381 36.381 36.381 0 0 1 36.381 0z" transform="translate(6.996 15.392)" style="fill:#fff"/>
    <path data-name="패스 31803" d="M0 0h2.8v27.985H0z" transform="translate(83.956 92.351)" style="fill:#3572db"/>
    <path data-name="패스 31804" d="M5.6 0A5.6 5.6 0 1 1 0 5.6 5.6 5.6 0 0 1 5.6 0z" transform="translate(79.758 114.74)" style="fill:#3572db"/>
    <g data-name="그룹 34517">
        <path data-name="패스 31815" d="M26.4 25.187h-9.763a6.3 6.3 0 0 0-12.281 0H0V2.8A2.8 2.8 0 0 1 2.8 0h39.187v25.185H38.68a6.3 6.3 0 0 0-12.281 0zM5.249 3.6A1.777 1.777 0 0 0 3.5 5.4v9.893h7L14 3.6zm13.12 0L16.619 9h21.573V3.6H18.369z" transform="translate(22.383 37.815)" style="fill:#4f8cf6"/>
        <path data-name="패스 31816" d="M4.2 0A4.2 4.2 0 1 1 0 4.2 4.2 4.2 0 0 1 4.2 0z" transform="translate(28.681 60.207)" style="fill:#4f8cf6"/>
        <path data-name="패스 31817" d="M4.2 0A4.2 4.2 0 1 1 0 4.2 4.2 4.2 0 0 1 4.2 0z" transform="translate(50.724 60.207)" style="fill:#4f8cf6"/>
    </g>
    <path data-name="패스 31880" d="M11.177-9.463h-6.25L4.6-6.09a5.543 5.543 0 0 1 1-.31 5.2 5.2 0 0 1 1.091-.112 5.891 5.891 0 0 1 2.046.36 4.864 4.864 0 0 1 1.724 1.079A5.162 5.162 0 0 1 11.636-3.3a6.309 6.309 0 0 1 .434 2.419 5.887 5.887 0 0 1-.446 2.319 5.268 5.268 0 0 1-1.252 1.811 5.926 5.926 0 0 1-1.91 1.19 6.622 6.622 0 0 1-2.443.434 6.128 6.128 0 0 1-1.86-.26 6.328 6.328 0 0 1-1.451-.657 5.936 5.936 0 0 1-1.1-.88 8.383 8.383 0 0 1-.794-.93L2.5.483q.273.372.6.732a3.844 3.844 0 0 0 .756.645 4.379 4.379 0 0 0 .967.471 3.721 3.721 0 0 0 1.228.186 3.57 3.57 0 0 0 1.3-.236A3.012 3.012 0 0 0 8.4 1.6 3.292 3.292 0 0 0 9.106.533a3.622 3.622 0 0 0 .26-1.414 3.259 3.259 0 0 0-.88-2.431 3.032 3.032 0 0 0-2.22-.868 3.476 3.476 0 0 0-1.513.3 4.854 4.854 0 0 0-1.166.794l-1.661-.523.025-.1.719-8.011h8.507zM23.925-7.9a3.924 3.924 0 0 0-1.314-1.29 3.564 3.564 0 0 0-1.885-.5 3.524 3.524 0 0 0-2.8 1.314A6.61 6.61 0 0 0 16.658-4.4a5.213 5.213 0 0 1 1.625-1.463 4.631 4.631 0 0 1 2.369-.57 5.077 5.077 0 0 1 2.021.409 4.964 4.964 0 0 1 1.662 1.153A5.657 5.657 0 0 1 25.463-3.1a5.932 5.932 0 0 1 .422 2.269 5.822 5.822 0 0 1-.446 2.294 5.442 5.442 0 0 1-1.228 1.811 5.627 5.627 0 0 1-1.823 1.178 5.892 5.892 0 0 1-2.232.422 5.733 5.733 0 0 1-2.666-.6 5.433 5.433 0 0 1-1.922-1.649A7.413 7.413 0 0 1 14.414.086a13.077 13.077 0 0 1-.384-3.274 13.459 13.459 0 0 1 .471-3.72 8.356 8.356 0 0 1 1.339-2.778 5.869 5.869 0 0 1 2.108-1.749 6.229 6.229 0 0 1 2.778-.608 6.128 6.128 0 0 1 1.649.211 5.873 5.873 0 0 1 1.377.57 5.654 5.654 0 0 1 1.116.843 5.751 5.751 0 0 1 .843 1.029zM17.1-.782a3.487 3.487 0 0 0 .806 2.369 2.783 2.783 0 0 0 2.22.93 2.812 2.812 0 0 0 2.245-.93 3.487 3.487 0 0 0 .806-2.369 3.523 3.523 0 0 0-.806-2.393 2.812 2.812 0 0 0-2.245-.93 2.783 2.783 0 0 0-2.22.93A3.523 3.523 0 0 0 17.1-.782zM38.434-11.72v1.86L32.383 4.55h-2.927v-.074l6-13.939h-7.438v-2.257zm8.011 16.593a8.362 8.362 0 0 1-2.616-.373 5.424 5.424 0 0 1-1.885-1.029A4.245 4.245 0 0 1 40.8 1.909a4.929 4.929 0 0 1-.384-1.947 4.8 4.8 0 0 1 .211-1.426 4.527 4.527 0 0 1 .6-1.24 4.025 4.025 0 0 1 .942-.967 3.965 3.965 0 0 1 1.228-.608 3.581 3.581 0 0 1-1.612-1.414 3.961 3.961 0 0 1-.521-2.034 4.281 4.281 0 0 1 .322-1.649 3.8 3.8 0 0 1 .98-1.377 4.8 4.8 0 0 1 1.625-.942 6.674 6.674 0 0 1 2.257-.347 6.674 6.674 0 0 1 2.257.347 4.666 4.666 0 0 1 1.612.942 4 4 0 0 1 .98 1.377 4.143 4.143 0 0 1 .335 1.649 3.961 3.961 0 0 1-.521 2.034A3.581 3.581 0 0 1 49.5-4.279a3.964 3.964 0 0 1 1.228.608 4.025 4.025 0 0 1 .942.967 4.527 4.527 0 0 1 .6 1.24 4.8 4.8 0 0 1 .211 1.426 4.929 4.929 0 0 1-.384 1.947 4.245 4.245 0 0 1-1.141 1.563A5.424 5.424 0 0 1 49.062 4.5a8.362 8.362 0 0 1-2.617.373zm0-7.986a3.372 3.372 0 0 0-2.48.818 2.761 2.761 0 0 0-.818 2.034 2.72 2.72 0 0 0 .818 2.021 3.4 3.4 0 0 0 2.48.806 3.4 3.4 0 0 0 2.48-.806 2.72 2.72 0 0 0 .818-2.021 2.761 2.761 0 0 0-.818-2.034 3.372 3.372 0 0 0-2.48-.818zm0-6.647a2.645 2.645 0 0 0-1.761.583 2.005 2.005 0 0 0-.694 1.625 2.005 2.005 0 0 0 .694 1.625 2.645 2.645 0 0 0 1.761.583 2.645 2.645 0 0 0 1.761-.583 2.005 2.005 0 0 0 .694-1.626 2.005 2.005 0 0 0-.694-1.625 2.645 2.645 0 0 0-1.761-.582z" transform="translate(91.431 55.443)" style="fill:#fff"/>
</svg>
