<svg xmlns="http://www.w3.org/2000/svg" width="168" height="127" viewBox="0 0 168 127">
    <defs>
        <linearGradient id="ppvufjdlza" x1=".5" x2=".5" y2="1" gradientUnits="objectBoundingBox">
            <stop offset="0" stop-color="#ff8a80"/>
            <stop offset="1" stop-color="#ea80fc"/>
        </linearGradient>
    </defs>
    <path data-name="사각형 34992" style="fill:none" d="M0 0h168v127H0z"/>
    <path data-name="패스 31800" d="M-7804.164 2876h79.627c23.105 0 41.838 19.372 41.838 43.267s-18.732 43.268-41.838 43.268h-79.627c-23.1 0-41.836-19.372-41.836-43.268s18.732-43.267 41.836-43.267z" transform="translate(7846 -2867.626)" style="fill:#90a4ae"/>
    <path data-name="패스 31864" d="M-7805.594 2876h76.9a40.441 40.441 0 0 1 40.406 40.476 40.441 40.441 0 0 1-40.406 40.476h-76.9a40.441 40.441 0 0 1-40.406-40.475 40.441 40.441 0 0 1 40.406-40.477z" transform="translate(7848.792 -2864.835)" style="fill:#b0bec5"/>
    <path data-name="패스 31802" d="M36.289 0A36.289 36.289 0 1 1 0 36.289 36.289 36.289 0 0 1 36.289 0z" transform="translate(6.979 15.353)" style="fill:#fff"/>
    <path data-name="패스 31799" d="M12.562 0A12.562 12.562 0 1 1 0 12.562 12.562 12.562 0 0 1 12.562 0z" transform="translate(135.386)" style="fill:#90a4ae"/>
    <path data-name="패스 31806" d="M0 0h25.123v13.957H0z" transform="translate(39.08 39.08)" style="fill:#b0bec5"/>
    <path data-name="패스 31807" d="M-6004.7 6372.542h-10.122a5.58 5.58 0 0 0-5.407-4.187 5.58 5.58 0 0 0-5.407 4.188H-6030v-15.353a4.193 4.193 0 0 1 4.188-4.189h9.77v12.563h27.915v6.977h-5.76a5.578 5.578 0 0 0-5.407-4.187 5.579 5.579 0 0 0-5.406 4.188z" transform="translate(6052.332 -6309.733)" style="fill:#b0bec5"/>
    <path data-name="패스 31808" d="M3.489 0A3.489 3.489 0 1 1 0 3.489 3.489 3.489 0 0 1 3.489 0z" transform="translate(28.612 60.714)" style="fill:#b0bec5"/>
    <path data-name="패스 31809" d="M3.489 0A3.489 3.489 0 1 1 0 3.489 3.489 3.489 0 0 1 3.489 0z" transform="translate(49.548 60.714)" style="fill:#b0bec5"/>
    <path data-name="패스 31803" d="M0 0h2.791v27.915H0z" transform="translate(83.744 92.118)" style="fill:#90a4ae"/>
    <path data-name="패스 31804" d="M5.583 0A5.583 5.583 0 1 1 0 5.583 5.583 5.583 0 0 1 5.583 0z" transform="translate(79.557 114.45)" style="fill:#90a4ae"/>
    <path data-name="패스 31798" d="M8.191 2.479h3.542v2.286H1.885V2.479h3.643v-11.2L2.589-6.867l-1-2.035 4.623-2.814h1.979zm6.256-10.627a6.471 6.471 0 0 1 .6-1.344 5.363 5.363 0 0 1 1.017-1.256 5.072 5.072 0 0 1 1.482-.93 5.119 5.119 0 0 1 2-.364 6.376 6.376 0 0 1 2.274.377 4.669 4.669 0 0 1 1.671 1.055A4.492 4.492 0 0 1 24.521-9a5.633 5.633 0 0 1 .352 2.01 5.881 5.881 0 0 1-.415 2.261 7.928 7.928 0 0 1-1.08 1.859 11.269 11.269 0 0 1-1.47 1.558q-.8.7-1.6 1.344t-1.47 1.244a5.665 5.665 0 0 0-1.055 1.206H25.1v2.283H14.5V2.831a8.231 8.231 0 0 1 1.218-1.9A17.266 17.266 0 0 1 17.311-.7q.854-.766 1.708-1.47a16.1 16.1 0 0 0 1.545-1.445A7.839 7.839 0 0 0 21.7-5.146a3.485 3.485 0 0 0 .44-1.721 3.144 3.144 0 0 0-.616-2.01 2.491 2.491 0 0 0-2.073-.779q-2.11 0-2.814 2.437zm18.239 13.24a6.519 6.519 0 0 1-1.947-.264 6.04 6.04 0 0 1-1.482-.678 5.75 5.75 0 0 1-1.105-.917 11.486 11.486 0 0 1-.817-.98L29.044.545a8.778 8.778 0 0 0 .616.791 4.3 4.3 0 0 0 .766.691 3.831 3.831 0 0 0 .98.49 3.969 3.969 0 0 0 1.281.188 3.784 3.784 0 0 0 2.424-.729 2.508 2.508 0 0 0 .917-2.085 2.439 2.439 0 0 0-.828-1.947 3.808 3.808 0 0 0-2.537-.716H31.28v-2.21h1.382a2.434 2.434 0 0 0 1.946-.718 2.484 2.484 0 0 0 .616-1.671 2.093 2.093 0 0 0-.691-1.721 2.667 2.667 0 0 0-1.746-.565 3.6 3.6 0 0 0-1.972.49A3.464 3.464 0 0 0 29.621-7.9l-1.582-1.554a6.376 6.376 0 0 1 1.9-1.821 5.164 5.164 0 0 1 2.851-.766 5.6 5.6 0 0 1 3.806 1.193 4.182 4.182 0 0 1 1.366 3.328 3.638 3.638 0 0 1-.59 1.985 4.041 4.041 0 0 1-1.646 1.457 4.16 4.16 0 0 1 2.261 1.545 4.363 4.363 0 0 1 .779 2.6 4.6 4.6 0 0 1-.466 2.086 4.758 4.758 0 0 1-1.269 1.583 5.745 5.745 0 0 1-1.922 1 8.04 8.04 0 0 1-2.423.356zm20.426-6.834V.545h-2.488v4.22h-2.638V.545h-7.813V-1.34l7.009-10.376h3.442v9.974zm-5.125-4.7a20.225 20.225 0 0 1 .151-2.789h-.075a5 5 0 0 1-.477 1q-.377.653-.879 1.407l-3.444 5.082h4.723z" transform="translate(90.37 55.251)" style="fill:#fff"/>
    <path data-name="패스 31865" d="M9.77 0A9.77 9.77 0 1 1 0 9.77 9.77 9.77 0 0 1 9.77 0z" transform="translate(138.177 2.791)" style="fill:#fff"/>
    <path data-name="패스 31801" d="M6.979 0A6.979 6.979 0 1 1 0 6.979 6.979 6.979 0 0 1 6.979 0z" transform="translate(140.969 5.583)" style="fill:url(#ppvufjdlza)"/>
</svg>
